<svg width="66" height="46" viewBox="0 0 66 46" fill="none" xmlns="http://www.w3.org/2000/svg">
<path fill-rule="evenodd" clip-rule="evenodd" d="M0 3C0 1.34315 1.34315 0 3 0H63C64.6569 0 66 1.34315 66 3V43C66 44.6569 64.6569 46 63 46H3C1.34315 46 0 44.6569 0 43V3Z" fill="#E6E7E8"/>
<path fill-rule="evenodd" clip-rule="evenodd" d="M21.5813 17.9265C21.1594 18.4313 20.4844 18.8294 19.8094 18.7725C19.725 18.09 20.0555 17.3649 20.4422 16.9171C20.8641 16.3981 21.6024 16.0284 22.2 16C22.2703 16.7109 21.9961 17.4076 21.5813 17.9265ZM22.193 18.9076C21.5983 18.873 21.0557 19.0884 20.6175 19.2624C20.3354 19.3744 20.0966 19.4692 19.9149 19.4692C19.711 19.4692 19.4623 19.3693 19.183 19.2571C18.8172 19.1102 18.3988 18.9422 17.9602 18.9502C16.9547 18.9645 16.0196 19.5403 15.5063 20.4573C14.4516 22.2915 15.2321 25.0071 16.2516 26.5C16.7508 27.2393 17.3485 28.0498 18.136 28.0213C18.4824 28.0081 18.7316 27.9012 18.9896 27.7905C19.2865 27.6631 19.5949 27.5308 20.0766 27.5308C20.5415 27.5308 20.8365 27.6597 21.1197 27.7834C21.3889 27.9011 21.6474 28.014 22.0313 28.0071C22.8469 27.9929 23.3602 27.2678 23.8594 26.5284C24.3981 25.7349 24.6349 24.9605 24.6708 24.843L24.675 24.8294C24.6742 24.8285 24.6675 24.8254 24.6558 24.82C24.4757 24.7366 23.0992 24.0995 23.086 22.391C23.0727 20.957 24.1778 20.2304 24.3517 20.116C24.3623 20.109 24.3695 20.1043 24.3727 20.1019C23.6696 19.0498 22.5727 18.936 22.193 18.9076ZM27.8391 27.9289V16.846H31.9524C34.0758 16.846 35.5594 18.3246 35.5594 20.4858C35.5594 22.6469 34.0477 24.1398 31.8961 24.1398H29.5407V27.9289H27.8391ZM29.5407 18.2962H31.5024C32.9789 18.2962 33.8227 19.0924 33.8227 20.4929C33.8227 21.8934 32.9789 22.6967 31.4953 22.6967H29.5407V18.2962ZM41.1774 26.5995C40.7274 27.4668 39.736 28.0142 38.6672 28.0142C37.0852 28.0142 35.9813 27.0616 35.9813 25.6256C35.9813 24.2038 37.05 23.3863 39.0258 23.2654L41.1492 23.1374V22.5261C41.1492 21.6232 40.5657 21.1327 39.525 21.1327C38.6672 21.1327 38.0414 21.5806 37.9149 22.263H36.3821C36.4313 20.827 37.7672 19.782 39.5742 19.782C41.5219 19.782 42.7875 20.8128 42.7875 22.4123V27.9289H41.2125V26.5995H41.1774ZM39.1242 26.6991C38.2172 26.6991 37.6407 26.2583 37.6407 25.5829C37.6407 24.8863 38.1961 24.481 39.2578 24.4171L41.1492 24.2962V24.9218C41.1492 25.9597 40.2774 26.6991 39.1242 26.6991ZM48.0117 28.3626C47.3297 30.3033 46.5492 30.9431 44.8899 30.9431C44.7633 30.9431 44.3414 30.9289 44.243 30.9005V29.5711C44.3485 29.5853 44.6086 29.5995 44.7422 29.5995C45.4946 29.5995 45.9164 29.2796 46.1766 28.4479L46.3313 27.9573L43.4485 19.8886H45.2274L47.2313 26.436H47.2664L49.2703 19.8886H51L48.0117 28.3626Z" fill="black"/>
</svg>
