<svg width="66" height="46" viewBox="0 0 66 46" fill="none" xmlns="http://www.w3.org/2000/svg">
<path d="M0.5 3C0.5 1.61929 1.61929 0.5 3 0.5H63C64.3807 0.5 65.5 1.61929 65.5 3V43C65.5 44.3807 64.3807 45.5 63 45.5H3C1.61929 45.5 0.5 44.3807 0.5 43V3Z" fill="white" stroke="#E6E7E8"/>
<path fill-rule="evenodd" clip-rule="evenodd" d="M32.0257 26.9064V22.8464V22.8456H34.222C35.1275 22.8461 35.8886 22.5616 36.5051 21.992C37.1281 21.4514 37.4764 20.6742 37.4587 19.864C37.4711 19.0584 37.1234 18.2869 36.5051 17.748C35.894 17.1753 35.0721 16.8628 34.222 16.88H30.6964V26.9064H32.0257ZM32.0257 21.6144V18.1144V18.1136H34.2551C34.7519 18.1001 35.2309 18.2938 35.5704 18.6456C35.9119 18.9673 36.1046 19.4093 36.1046 19.8708C36.1046 20.3324 35.9119 20.7743 35.5704 21.096C35.2267 21.4404 34.7493 21.6286 34.2551 21.6144H32.0257Z" fill="#5F6368"/>
<path fill-rule="evenodd" clip-rule="evenodd" d="M42.8488 20.5856C42.2802 20.0768 41.5046 19.8224 40.522 19.8224C39.2598 19.8224 38.3067 20.2704 37.6627 21.1664L38.8335 21.8808C39.2661 21.2739 39.8538 20.9704 40.5963 20.9704C41.0698 20.965 41.5279 21.1327 41.8794 21.44C42.23 21.7208 42.4316 22.1394 42.4285 22.58V22.8744C41.9177 22.5944 41.2676 22.4544 40.4782 22.4544C39.5535 22.4555 38.8142 22.6656 38.2604 23.0848C37.7067 23.504 37.4298 24.0685 37.4298 24.7784C37.4177 25.4248 37.7071 26.042 38.2175 26.4584C38.7427 26.9064 39.3952 27.1304 40.1752 27.1304C41.089 27.1304 41.8211 26.7384 42.3715 25.9544H42.4293V26.9064H43.7009V22.6784C43.7015 21.792 43.4174 21.0944 42.8488 20.5856ZM39.243 25.6464C38.9645 25.4519 38.8003 25.139 38.8021 24.8064C38.8021 24.4328 38.9829 24.1216 39.3471 23.8656C39.7076 23.6133 40.1579 23.4872 40.6979 23.4872C41.4393 23.4872 42.0173 23.6472 42.4318 23.9672C42.4318 24.508 42.2116 24.9792 41.7713 25.3808C41.3746 25.7651 40.8369 25.9815 40.276 25.9824C39.9019 25.9892 39.537 25.8705 39.243 25.6464Z" fill="#5F6368"/>
<path fill-rule="evenodd" clip-rule="evenodd" d="M51 20.0464L46.5611 29.9304H45.1888L46.836 26.472L43.9172 20.0464H45.3622L47.4718 24.9744H47.5007L49.5526 20.0464H51Z" fill="#5F6368"/>
<path fill-rule="evenodd" clip-rule="evenodd" d="M26.6538 21.9712C26.6543 21.5787 26.62 21.1868 26.5514 20.8H20.9449V23.0184H24.156C24.0233 23.7343 23.5944 24.3667 22.9687 24.7688V26.2088H24.8851C26.0072 25.2064 26.6538 23.724 26.6538 21.9712Z" fill="#4285F4"/>
<path fill-rule="evenodd" clip-rule="evenodd" d="M20.945 27.6C22.5493 27.6 23.9001 27.0896 24.8851 26.2096L22.9687 24.7696C22.4353 25.12 21.7483 25.32 20.945 25.32C19.3943 25.32 18.0782 24.3072 17.6075 22.9424H15.6333V24.4264C16.6424 26.3719 18.6976 27.5999 20.945 27.6Z" fill="#34A853"/>
<path fill-rule="evenodd" clip-rule="evenodd" d="M17.6075 22.9424C17.3587 22.2272 17.3587 21.4528 17.6075 20.7376V19.2536H15.6333C14.7892 20.8809 14.7892 22.7991 15.6333 24.4264L17.6075 22.9424Z" fill="#FBBC04"/>
<path fill-rule="evenodd" clip-rule="evenodd" d="M20.945 18.36C21.7928 18.3466 22.612 18.657 23.2255 19.224L24.9223 17.58C23.8464 16.6009 22.421 16.0633 20.945 16.08C18.6976 16.0801 16.6424 17.3081 15.6333 19.2536L17.6075 20.7376C18.0782 19.3728 19.3943 18.36 20.945 18.36Z" fill="#EA4335"/>
</svg>
