<svg width="66" height="46" viewBox="0 0 66 46" fill="none" xmlns="http://www.w3.org/2000/svg">
<path fill-rule="evenodd" clip-rule="evenodd" d="M0 3C0 1.34315 1.34315 0 3 0H63C64.6569 0 66 1.34315 66 3V43C66 44.6569 64.6569 46 63 46H3C1.34315 46 0 44.6569 0 43V3Z" fill="#262626"/>
<g opacity="0.01">
<rect x="13" y="10" width="39.8152" height="25.9701" fill="white"/>
</g>
<rect x="27.6576" y="14.5246" width="10.503" height="16.9179" fill="#FF5F00"/>
<path fill-rule="evenodd" clip-rule="evenodd" d="M28.7394 22.985C28.7368 19.6842 30.2732 16.5656 32.9061 14.5276C28.4333 11.0609 22.0102 11.5659 18.1507 15.6876C14.2913 19.8092 14.2913 26.1638 18.1507 30.2855C22.0102 34.4072 28.4333 34.9122 32.9061 31.4455C30.2724 29.4069 28.7358 26.2869 28.7394 22.985Z" fill="#EB001B"/>
<path fill-rule="evenodd" clip-rule="evenodd" d="M49.536 29.3795V30.0825H49.4627V29.3795H49.306V29.234H49.7027V29.3795H49.536ZM50.306 29.234V30.0825H50.2227V29.4401L50.0927 29.9916H50.0027L49.8727 29.4401V30.0825H49.786V29.234H49.906L50.046 29.8401L50.186 29.234H50.306Z" fill="#F79E1B"/>
<path fill-rule="evenodd" clip-rule="evenodd" d="M50.5576 22.9851C50.5575 27.1042 48.1726 30.8618 44.4157 32.6618C40.6588 34.4618 36.1896 33.9884 32.9061 31.4425C35.5378 29.4028 37.0743 26.2845 37.0743 22.9836C37.0743 19.6826 35.5378 16.5643 32.9061 14.5246C36.1896 11.9787 40.6588 11.5053 44.4157 13.3053C48.1726 15.1054 50.5575 18.8629 50.5576 22.9821V22.9851Z" fill="#F79E1B"/>
</svg>
