<svg width="66" height="46" viewBox="0 0 66 46" fill="none" xmlns="http://www.w3.org/2000/svg">
<path fill-rule="evenodd" clip-rule="evenodd" d="M0 3C0 1.34315 1.34315 0 3 0H63C64.6569 0 66 1.34315 66 3V43C66 44.6569 64.6569 46 63 46H3C1.34315 46 0 44.6569 0 43V3Z" fill="#1B3D92"/>
<path opacity="0.68" fill-rule="evenodd" clip-rule="evenodd" d="M41.7452 17.299C42.0447 15.3702 41.7432 14.0581 40.7105 12.8692C39.5735 11.5606 37.5195 11 34.8915 11H27.263C26.726 11 26.2685 11.3947 26.185 11.9308L23.0082 32.2773C22.9457 32.6788 23.253 33.0417 23.655 33.0417H28.3645L28.0395 35.1237C27.9847 35.475 28.2532 35.7924 28.6052 35.7924H32.575C33.0447 35.7924 33.4447 35.4472 33.518 34.9783L33.557 34.7742L34.3047 29.9843L34.353 29.7197C34.4262 29.251 34.8262 28.9053 35.296 28.9053H35.8897C39.7355 28.9053 42.7467 27.3273 43.6265 22.7631C43.9942 20.8561 43.804 19.2641 42.8317 18.1449C42.538 17.8071 42.172 17.5273 41.7452 17.299Z" fill="white"/>
<path opacity="0.7" fill-rule="evenodd" clip-rule="evenodd" d="M41.7452 17.299C42.0447 15.3702 41.7432 14.0581 40.7105 12.8692C39.5735 11.5606 37.5195 11 34.8915 11H27.263C26.726 11 26.2685 11.3947 26.185 11.9308L23.0082 32.2773C22.9457 32.6788 23.253 33.0417 23.655 33.0417H28.3645L29.5475 25.4641L29.5107 25.7018C29.5945 25.1659 30.0477 24.771 30.585 24.771H32.8235C37.2195 24.771 40.6617 22.9669 41.6672 17.7497C41.6972 17.5957 41.7225 17.446 41.7452 17.299Z" fill="white"/>
<path fill-rule="evenodd" clip-rule="evenodd" d="M30.8185 17.3245C30.8687 17.0023 31.0737 16.7381 31.3495 16.6048C31.4747 16.5442 31.615 16.5104 31.7617 16.5104H37.7415C38.45 16.5104 39.1105 16.5573 39.7142 16.6556C39.8867 16.6836 40.0547 16.7159 40.218 16.7525C40.381 16.7891 40.5395 16.8298 40.6927 16.8753C40.7695 16.8977 40.8447 16.9217 40.919 16.9465C41.2155 17.046 41.4917 17.1631 41.7457 17.2992C42.0452 15.3705 41.7437 14.0583 40.711 12.8694C39.5735 11.5606 37.5195 11 34.8915 11H27.263C26.726 11 26.2685 11.3947 26.185 11.9308L23.0082 32.2773C22.9457 32.6788 23.253 33.0417 23.655 33.0417H28.3645L29.5475 25.4641L30.8185 17.3245Z" fill="white"/>
</svg>
