<svg width="63" height="64" viewBox="0 0 63 64" fill="none" xmlns="http://www.w3.org/2000/svg">
<mask id="mask0_0_1111" style="mask-type:alpha" maskUnits="userSpaceOnUse" x="0" y="1" width="63" height="63">
<path fill-rule="evenodd" clip-rule="evenodd" d="M0 1H62.0837V63.2085H0V1Z" fill="white"/>
</mask>
<g mask="url(#mask0_0_1111)">
<path fill-rule="evenodd" clip-rule="evenodd" d="M0.503715 32.1775C0.463715 32.1805 0.424715 32.1805 0.385715 32.1825C0.475715 33.4005 0.572715 34.6175 0.653715 35.8345C0.721715 36.7875 0.785715 37.7305 1.15872 38.6355C1.32972 39.0515 1.32171 39.5415 1.42271 39.9905C1.55471 40.5715 1.63072 41.1855 1.88572 41.7095C2.10971 42.1725 2.25272 42.6405 2.40072 43.1235C2.52772 43.5415 2.70171 43.9455 2.87872 44.3485C2.98772 44.6045 3.14972 44.8345 3.26572 45.0895C3.43372 45.4565 3.54571 45.8545 3.74471 46.2025C4.03071 46.7015 4.43271 47.1425 4.67571 47.6575C5.07371 48.5105 5.64371 49.2485 6.16271 50.0165C6.60571 50.6735 7.14971 51.2645 7.65671 51.8785C8.05571 52.3585 8.44072 52.8515 8.87471 53.2955C9.32272 53.7555 9.82472 54.1645 10.3017 54.5965C10.3637 54.6525 10.4257 54.7085 10.4837 54.7675C10.8627 55.1295 11.2187 55.5165 11.6197 55.8495C12.1167 56.2625 12.6437 56.6355 13.1677 57.0105C13.3587 57.1485 13.5977 57.2245 13.7907 57.3615C14.3157 57.7315 14.8007 58.1605 15.3477 58.4915C16.0487 58.9125 16.7857 59.2715 17.5177 59.6335C17.9967 59.8715 18.4937 60.0765 18.9867 60.2835C19.4247 60.4665 19.8677 60.6285 20.3087 60.8025C20.6617 60.9435 21.0037 61.1285 21.3707 61.2185C22.5047 61.4985 23.6087 61.8825 24.7587 62.0955C25.2137 62.1825 25.6707 62.2495 26.1307 62.3145C26.9937 62.4345 27.8577 62.6225 28.7277 62.6425C30.5327 62.6875 32.3427 62.7775 34.1537 62.5385C35.5867 62.3505 37.0257 62.2785 38.4197 61.8095C39.4547 61.4615 40.5537 61.3445 41.5637 60.8615C42.2807 60.5165 43.0617 60.3205 43.7897 59.9585C44.8817 59.4175 45.9827 58.9295 47.0017 58.2425C47.5877 57.8465 48.2277 57.5185 48.7967 57.0865C49.3237 56.6855 49.8877 56.3295 50.3977 55.9085C50.8437 55.5415 51.2257 55.1045 51.6507 54.7145C52.0947 54.3045 52.5797 53.9375 53.0027 53.5055C53.4517 53.0485 53.8527 52.5405 54.2737 52.0525C54.5847 51.6885 54.9017 51.3235 55.1987 50.9485C55.5977 50.4455 55.9957 49.9415 56.3627 49.4165C56.6287 49.0325 56.8337 48.6035 57.0887 48.2075C57.3897 47.7395 57.7537 47.3075 58.0177 46.8195C58.4067 46.1075 58.7347 45.3615 59.0857 44.6265C59.3837 44.0065 59.5347 43.3335 59.8597 42.7165C60.1147 42.2315 60.1237 41.6225 60.3447 41.1155C60.5217 40.7115 60.3937 40.2095 60.7767 39.8815C60.8267 39.8425 60.8077 39.7185 60.8217 39.6345C60.9057 39.1635 60.9987 38.6925 61.0737 38.2185C61.2007 37.4075 61.3267 36.5975 61.4397 35.7835C61.4867 35.4255 61.4137 35.0245 61.5537 34.7125C61.6857 34.4095 61.7277 34.1265 61.7307 33.8215C61.7357 32.6825 61.7327 31.5405 61.7277 30.4025C61.7277 30.2475 61.7617 30.0485 61.6827 29.9455C61.4247 29.6085 61.5007 29.2215 61.4617 28.8545C61.3827 28.1195 61.3207 27.3815 61.2087 26.6525C61.1277 26.0975 60.9897 25.5475 60.8577 25.0005C60.7437 24.5125 60.6077 24.0305 60.4747 23.5485C60.3817 23.2195 60.2637 22.9005 60.1687 22.5745C60.0227 22.0755 59.8317 21.6015 59.6077 21.1245C59.2717 20.4045 59.1057 19.6105 58.6767 18.9095C58.2737 18.2445 58.0677 17.4735 57.5667 16.8425C57.1907 16.3685 56.9297 15.8025 56.6067 15.2825C56.4337 15.0055 56.2417 14.7395 56.0457 14.4785C55.7147 14.0435 55.3757 13.6175 55.0387 13.1855C55.0087 13.1465 54.9937 13.0955 54.9637 13.0565C54.7837 12.8125 54.6207 12.5545 54.4197 12.3325C54.0997 11.9855 53.7427 11.6685 53.4147 11.3285C52.9437 10.8415 52.4897 10.3395 52.0157 9.85951C51.8537 9.69351 51.6347 9.58451 51.4607 9.43051C51.0257 9.03451 50.6157 8.60251 50.1647 8.22951C49.7467 7.88551 49.2867 7.58751 48.8417 7.28151C48.6057 7.11951 48.3477 6.99251 48.1147 6.83051C47.5907 6.45751 47.0967 6.04251 46.5557 5.70251C46.0307 5.37451 45.4707 5.10551 44.9177 4.83351C44.3037 4.53151 43.6777 4.25051 43.0557 3.97251C42.8087 3.86051 42.5507 3.77651 42.2987 3.68051C41.7337 3.47351 41.1767 3.24651 40.6077 3.06451C39.9417 2.85351 39.2747 2.64051 38.5937 2.50851C38.2067 2.43251 37.8567 2.26151 37.4887 2.18351C36.6027 1.99251 35.6987 1.86651 34.7957 1.77151C33.7867 1.66751 32.7687 1.57451 31.7567 1.57451C30.5507 1.57251 29.3477 1.65651 28.1447 1.73151C27.3567 1.78251 26.5707 1.88351 25.7847 1.96451C25.7187 1.97051 25.6487 1.99051 25.5867 2.02051C25.1237 2.23951 24.5427 2.01751 24.1307 2.41951C23.0287 2.67151 21.9267 2.87651 20.8667 3.33351C20.0387 3.68651 19.1477 3.89951 18.3367 4.32351C17.8317 4.58651 17.2487 4.71351 16.7747 5.01551C16.2327 5.36351 15.6607 5.65551 15.1257 6.00851C14.7887 6.23351 14.4187 6.39851 14.0907 6.62851C13.5407 7.01551 13.0087 7.43051 12.4757 7.84051C11.8557 8.31651 11.2187 8.77951 10.6297 9.29251C10.1397 9.72451 9.71572 10.2385 9.24171 10.6895C8.69172 11.2165 8.19071 11.7805 7.71071 12.3695C7.52271 12.5995 7.25071 12.7595 7.08272 12.9975C6.59171 13.6845 6.13472 14.3945 5.66572 15.0925C5.62672 15.1485 5.58772 15.2015 5.54872 15.2585C5.41672 15.4405 5.27372 15.6165 5.15571 15.8075C4.96472 16.1215 4.79372 16.4445 4.60672 16.7585C4.30672 17.2545 3.97772 17.7315 3.70571 18.2415C3.48171 18.6565 3.33871 19.1115 3.13671 19.5405C2.89571 20.0535 2.59872 20.5355 2.48072 21.1055C2.39671 21.5005 2.30672 21.9355 2.07871 22.2525C1.79871 22.6505 1.76572 23.0995 1.62771 23.5255C1.47671 23.9905 1.38671 24.4795 1.26671 24.9585C1.17071 25.3485 1.19871 25.7585 0.942715 26.1225C0.814715 26.3075 0.890715 26.6275 0.856715 26.8855C0.741715 27.7515 0.572715 28.6135 0.517715 29.4855C0.457715 30.3765 0.503715 31.2805 0.503715 32.1775ZM62.0307 34.5385C62.0167 34.6675 62.0057 34.7965 61.9907 34.9285C61.9037 35.8675 61.8577 36.8165 61.7057 37.7475C61.6407 38.1515 61.4497 38.5375 61.3967 38.9675C61.3377 39.4185 61.1247 39.8505 61.0687 40.3025C60.9837 41.0035 60.6557 41.6145 60.4457 42.2675C60.2697 42.8175 60.0867 43.3645 59.8877 43.9055C59.8097 44.1185 59.6667 44.3035 59.5767 44.5145C59.3607 45.0245 59.1847 45.5545 58.9487 46.0565C58.7277 46.5225 58.4547 46.9655 58.1937 47.4145C57.9047 47.9105 57.6217 48.4185 57.2937 48.8925C56.8477 49.5485 56.3257 50.1545 55.8997 50.8185C55.3417 51.6935 54.6267 52.4345 53.9507 53.2055C53.5217 53.6965 53.0007 54.1025 52.5257 54.5575C52.1217 54.9495 51.7577 55.3875 51.3257 55.7465C50.6607 56.2965 49.9567 56.7985 49.2647 57.3115C48.7267 57.7125 48.1827 58.0995 47.6377 58.4915C47.5567 58.5505 47.4697 58.6045 47.3797 58.6545C46.8447 58.9515 46.3117 59.2605 45.7677 59.5435C44.8307 60.0345 43.8687 60.4665 42.8877 60.8645C42.4107 61.0575 41.9447 61.2795 41.4457 61.4225C41.1537 61.5065 40.8707 61.6305 40.5787 61.7145C39.8497 61.9185 39.1267 62.1375 38.3887 62.3005C37.6067 62.4715 36.7757 62.4905 36.0267 62.7495C35.2867 63.0015 34.5527 62.9905 33.8067 63.0525C33.7197 63.0575 33.6407 63.1535 33.5567 63.2085H28.3737C28.2257 63.1475 28.0827 63.0525 27.9307 63.0345C27.5687 62.9955 27.2047 63.0155 26.8457 62.9735C26.6497 62.9535 26.4647 62.8615 26.2737 62.7965C26.2117 62.7745 26.1497 62.7325 26.0857 62.7235C25.6107 62.6455 25.1347 62.5865 24.6637 62.5025C23.8727 62.3565 23.0427 62.3055 22.3137 62.0115C21.4307 61.6555 20.4767 61.5095 19.6417 61.0915C18.9897 60.7695 18.2977 60.5705 17.6607 60.2305C17.0137 59.8885 16.3377 59.5995 15.7057 59.2325C15.0197 58.8315 14.3687 58.3685 13.7037 57.9275C13.0567 57.4995 12.3887 57.0925 11.7717 56.6245C11.2857 56.2565 10.8657 55.8075 10.4137 55.3985C9.92672 54.9585 9.41872 54.5405 8.95572 54.0805C8.57372 53.6985 8.25171 53.2675 7.89271 52.8635C7.40771 52.3195 6.90871 51.7895 6.42671 51.2425C6.31671 51.1185 6.25471 50.9595 6.16772 50.8165C5.68871 50.0445 5.07071 49.3685 4.67372 48.5325C4.43871 48.0365 4.01472 47.6355 3.73672 47.1565C3.49272 46.7325 3.36871 46.2415 3.12771 45.8185C2.70671 45.0865 2.46871 44.2785 2.10771 43.5305C1.65271 42.5875 1.53471 41.5505 1.14571 40.6105C0.833715 39.8585 0.758715 39.0735 0.544715 38.3135C0.370715 37.7105 0.351715 37.0595 0.275715 36.4315C0.231715 36.0615 0.315715 35.6715 0.040715 35.3465C-0.016285 35.2815 0.00371498 35.1475 0.00371498 35.0435C0.000714982 33.1615 -0.00428502 31.2775 0.00671498 29.3955C0.00671498 29.2045 0.109715 29.0105 0.169715 28.8205C0.191715 28.7395 0.228715 28.6575 0.238715 28.5735C0.325715 27.8415 0.388715 27.1045 0.499715 26.3745C0.614715 25.6315 0.673715 24.8545 0.948715 24.1705C1.33272 23.2055 1.48971 22.1825 1.85971 21.2225C1.93071 21.0375 2.06772 20.8815 2.14172 20.6985C2.35971 20.1515 2.47772 19.5405 2.79372 19.0575C3.18472 18.4575 3.35772 17.7735 3.71772 17.1735C4.25571 16.2785 4.80271 15.3845 5.38871 14.5175C5.71671 14.0325 6.14371 13.6115 6.51371 13.1545C6.68971 12.9305 6.82071 12.6725 7.00372 12.4535C7.64672 11.6965 8.27971 10.9275 8.96171 10.2075C9.38171 9.76051 9.87871 9.38551 10.3467 8.98451C10.9357 8.48251 11.5247 7.98051 12.1277 7.49551C12.3597 7.30751 12.6807 7.20951 12.8707 6.99251C13.1927 6.62551 13.6107 6.42951 14.0097 6.18851C14.5367 5.87151 15.1077 5.61051 15.5767 5.22051C16.0597 4.81951 16.6487 4.68751 17.1587 4.38551C17.8857 3.95551 18.6927 3.71751 19.4397 3.35251C20.3637 2.90151 21.3797 2.77251 22.3057 2.38751C23.0397 2.08551 23.8147 2.01251 24.5547 1.78251C24.9887 1.64451 25.4597 1.61451 25.9167 1.54451C26.3687 1.47351 26.8097 1.47651 27.2637 1.29151C27.7007 1.11551 28.2507 1.22451 28.7497 1.17651C28.9407 1.15951 29.1197 1.06151 29.3087 0.999512H32.8307C32.9627 1.05851 33.0917 1.15451 33.2257 1.17151C33.5677 1.20751 33.9157 1.20151 34.2607 1.22451C34.5637 1.24351 34.8857 1.19051 35.1387 1.44051C35.1777 1.48251 35.2677 1.47951 35.3347 1.48851C36.0167 1.57451 36.7007 1.63651 37.3767 1.75151C38.0827 1.86951 38.8257 1.93051 39.4717 2.20551C40.3497 2.58451 41.2797 2.75851 42.1637 3.08351C42.5697 3.23251 42.9547 3.43151 43.3477 3.61351C44.1657 3.98951 45.0017 4.33751 45.7957 4.76051C46.4847 5.12551 47.1247 5.57951 47.7867 5.99451C48.0867 6.17951 48.3847 6.36551 48.6787 6.55851C49.1237 6.84751 49.5847 7.11351 49.9967 7.44451C50.4987 7.84551 50.9497 8.30851 51.4327 8.73751C51.8727 9.13051 52.3297 9.50351 52.7677 9.90151C52.9127 10.0325 53.0057 10.2235 53.1467 10.3615C53.5667 10.7765 54.0037 11.1745 54.4247 11.5895C54.5907 11.7555 54.7277 11.9465 54.8787 12.1255C55.0507 12.3245 55.2327 12.5125 55.3897 12.7195C55.4987 12.8655 55.5687 13.0365 55.6727 13.1885C56.1217 13.8445 56.5337 14.5345 57.0357 15.1455C57.5767 15.8045 58.0007 16.5315 58.3967 17.2685C58.8367 18.0905 59.1447 18.9795 59.5967 19.7895C60.0387 20.5835 60.1497 21.4895 60.5387 22.2825C60.8557 22.9335 60.9347 23.6355 61.1757 24.2995C61.2847 24.5995 61.3237 24.9275 61.3857 25.2445C61.5207 25.9265 61.6747 26.6045 61.7727 27.2895C61.8997 28.1725 61.9777 29.0615 62.0837 30.0125L62.0307 34.5385Z" fill="#E9ECF0"/>
</g>
<path fill-rule="evenodd" clip-rule="evenodd" d="M33.74 22.1331C34.278 22.2371 34.222 21.7071 34.537 21.4461H33.687C33.707 21.6871 33.72 21.8781 33.74 22.1331ZM31.681 22.8171C31.746 22.6911 31.761 22.6371 31.794 22.6041C31.999 22.3941 32.273 22.2221 32.405 21.9761C32.725 21.3641 32.871 20.6771 33.087 20.0291C33.322 19.3251 33.322 18.5431 33.386 17.7911C33.443 17.1521 33.8 16.7091 34.172 16.2631C34.215 16.2801 34.254 16.2971 34.296 16.3141C34.248 16.5241 34.2 16.7341 34.15 16.9611C34.329 16.9751 34.495 16.9871 34.724 17.0011C34.629 17.2391 34.52 17.4241 34.486 17.6231C34.45 17.8421 34.489 18.0721 34.477 18.2961C34.475 18.3521 34.422 18.4281 34.369 18.4591C34.074 18.6441 34.113 18.9301 34.091 19.2221C34.071 19.5301 33.984 19.8301 34.215 20.0991C34.225 20.1131 34.197 20.1611 34.183 20.2151C34.13 20.2311 34.065 20.2481 34.001 20.2681C33.927 20.2901 33.855 20.3161 33.65 20.3831C33.827 20.5011 33.993 20.5571 34.001 20.6271C34.057 21.2691 34.08 21.2941 34.691 21.1821C34.711 20.9911 34.73 20.7891 34.756 20.5541C35.308 20.4841 35.336 20.0071 35.431 19.5951C35.518 19.2081 35.502 18.8041 35.863 18.5041C36.02 18.3751 36.085 18.0971 36.127 17.8761C36.205 17.4301 36.071 16.9531 36.329 16.5291C36.368 16.4681 36.34 16.3611 36.337 16.2771C36.335 16.1311 36.312 15.9861 36.326 15.8421C36.39 15.2221 36.471 14.6031 36.536 13.9831C36.553 13.8341 36.539 13.6861 36.539 13.5291C35.998 13.5911 36.261 14.1041 35.984 14.3111C35.962 14.0191 35.989 13.7391 36.031 13.4641C36.059 13.2621 36.127 13.0661 36.138 12.8671C36.155 12.5501 35.984 12.4801 35.68 12.5891C35.644 13.0071 35.608 13.4301 35.574 13.8571L35.406 13.8481V12.0951C34.792 12.2801 35.097 12.8391 34.803 13.2201C34.747 12.7631 34.699 12.3991 34.652 12.0341C34.615 12.0141 34.576 11.9971 34.54 11.9811C34.416 12.1291 34.296 12.2801 34.161 12.4461C33.953 12.2861 33.824 12.3141 33.734 12.6031C33.583 13.0801 33.734 13.5091 33.861 13.9491C33.92 14.1541 34.026 14.3531 34.046 14.5641C34.125 15.3181 33.74 15.9521 33.488 16.6311C33.384 16.5551 33.311 16.4991 33.224 16.4341C33.154 16.6131 33.135 16.7931 33.036 16.8831C32.759 17.1331 32.845 17.3931 32.932 17.6761C32.961 17.7691 32.949 17.8761 32.935 17.9741C32.916 18.1091 32.871 18.2401 32.854 18.3721C32.77 19.0701 32.694 19.7691 32.61 20.4671C32.601 20.5511 32.574 20.6351 32.543 20.7141C32.296 21.3391 31.867 21.8491 31.494 22.3961C31.482 22.4101 31.477 22.4271 31.469 22.4411C31.217 22.8251 30.874 22.9211 30.414 22.9071C29.017 22.8731 27.618 22.8991 26.219 22.8901C25.947 22.8871 25.633 22.9991 25.441 22.6491C25.405 22.5841 25.176 22.5821 25.054 22.6181C24.693 22.7241 24.343 22.8671 23.857 23.0411C24.146 23.1391 24.34 23.2581 24.536 23.2631C25.445 23.2801 26.359 23.2661 27.27 23.2711C27.399 23.2711 27.528 23.3141 27.66 23.3361C27.654 23.3721 27.648 23.4091 27.643 23.4451C27.239 23.5711 26.768 23.3611 26.356 23.6611C26.457 23.7741 26.524 23.9161 26.614 23.9361C27.128 24.0431 27.61 24.2921 28.168 24.1971C28.636 24.1151 29.118 24.0991 29.595 24.0681C30.128 24.0371 30.664 24.0261 31.2 23.9951C31.278 23.9921 31.353 23.9361 31.539 23.8581C30.832 23.6861 30.207 23.9271 29.57 23.7121C30.061 23.3051 30.144 23.2631 30.641 23.2601C31.522 23.2521 32.402 23.2461 33.283 23.2601C33.858 23.2711 34.455 23.1391 34.997 23.4701C35.05 23.5011 35.132 23.4991 35.198 23.4991C35.734 23.4991 36.27 23.5071 36.805 23.4931C37.178 23.4821 37.333 23.1791 37.15 22.8421C37.103 22.7561 37.069 22.6601 37.021 22.5531C36.393 22.5531 35.771 22.5421 35.153 22.5591C35.013 22.5621 34.876 22.6541 34.739 22.7111C34.593 22.7691 34.453 22.8821 34.306 22.8871C33.581 22.9041 32.857 22.8991 32.131 22.8901C32.002 22.8901 31.873 22.8511 31.681 22.8171ZM9.56799 26.3871C9.70299 25.8541 9.74799 25.3721 10.028 24.9181C10.261 24.5391 10.368 24.0731 10.497 23.6361C10.623 23.2181 10.768 22.8251 11.024 22.4521C11.299 22.0571 11.411 21.5501 11.68 21.1491C12.009 20.6601 12.193 20.0911 12.644 19.6711C12.906 19.4291 13.015 19.0311 13.254 18.7591C13.778 18.1621 14.171 17.4611 14.773 16.9251C15.247 16.5011 15.646 15.9941 16.089 15.5341C16.201 15.4161 16.364 15.3491 16.493 15.2451C17.135 14.7261 17.768 14.1991 18.42 13.6911C18.601 13.5481 18.86 13.5011 19.034 13.3491C19.583 12.8641 20.279 12.6481 20.882 12.2721C21.515 11.8741 22.222 11.6801 22.873 11.3501C23.386 11.0891 23.911 10.8951 24.466 10.7551C24.763 10.6821 25.054 10.5901 25.352 10.5221C26.308 10.3001 27.234 9.9921 28.223 9.8851C29.808 9.7201 31.39 9.6581 32.974 9.7481C33.791 9.7931 34.601 9.9721 35.415 10.0761C36.531 10.2191 37.574 10.6461 38.665 10.8811C39.131 10.9851 39.556 11.2511 40.003 11.4391C40.437 11.6221 40.926 11.7251 41.299 11.9921C41.935 12.4461 42.757 12.5641 43.303 13.1701C43.449 13.3291 43.735 13.3581 43.921 13.4951C44.543 13.9551 45.146 14.4371 45.758 14.9111C45.957 15.0661 46.167 15.2091 46.354 15.3771C46.529 15.5281 46.678 15.7111 46.84 15.8731C47.331 16.3701 47.83 16.8551 48.312 17.3601C48.495 17.5501 48.64 17.7781 48.801 17.9931C49.437 18.8631 50.127 19.6871 50.665 20.6331C50.996 21.2161 51.262 21.8271 51.596 22.4021C52.045 23.1681 52.256 24.0171 52.566 24.8341C52.696 25.1701 52.839 25.5091 52.948 25.8571C52.999 26.0141 53.032 26.1771 53.083 26.3871H9.56799Z" fill="#E9ECF0"/>
<path fill-rule="evenodd" clip-rule="evenodd" d="M36.0779 41.7361C36.0609 41.7331 36.0359 41.7221 36.0269 41.7281C35.4729 42.1711 34.9029 42.6001 34.3699 43.0681C33.9269 43.4551 33.5709 43.9461 33.0969 44.2821C32.6229 44.6221 32.1939 45.0061 31.7619 45.3901C31.1979 45.8921 30.6289 46.3921 30.0619 46.8961C29.7599 47.1691 29.6249 47.1791 29.3059 46.9071C29.1449 46.7701 29.0279 46.5821 28.8679 46.4451C28.4529 46.0911 28.0229 45.7551 27.6029 45.4131C27.4849 45.3181 27.3339 45.2441 27.2609 45.1211C27.1769 44.9811 27.1289 44.8461 26.9299 44.8971C26.6809 44.9611 26.7529 45.1661 26.7529 45.3231C26.7449 46.1331 26.7699 46.9471 26.7419 47.7551C26.7249 48.2401 26.9079 48.6101 27.2409 48.9291C27.6449 49.3171 28.0489 49.7061 28.4559 50.0931C28.8819 50.5001 29.3099 50.9041 29.7289 51.2991C30.2559 50.7611 30.7329 50.2561 31.2289 49.7681C31.6219 49.3781 32.0489 49.0191 32.4399 48.6271C32.8779 48.1861 33.2879 47.7181 33.7199 47.2751C33.8959 47.0921 34.1199 46.9611 34.2979 46.7811C34.8189 46.2621 35.3319 45.7361 35.8339 45.1971C35.9689 45.0571 36.1449 44.8721 36.1479 44.7031C36.1709 43.7411 36.1479 42.7771 36.1379 41.8121C36.1379 41.7871 36.0979 41.7611 36.0779 41.7361ZM9.5899 37.8581H52.9889C53.1599 38.3321 52.9129 38.7831 52.7449 39.1251C52.5739 39.4761 52.5129 39.8541 52.3389 40.1961C52.1339 40.6001 52.0559 41.0691 51.8669 41.4841C51.6319 41.9941 51.3649 42.4961 51.0679 42.9761C50.5319 43.8451 49.9939 44.7201 49.3929 45.5481C49.0969 45.9601 48.7969 46.3781 48.4819 46.7761C48.1119 47.2441 47.6269 47.6261 47.1949 48.0441C47.1439 48.0911 47.1049 48.1441 47.0569 48.1921C46.5999 48.6411 46.1519 49.0981 45.6809 49.5301C45.4739 49.7201 45.2239 49.8661 44.9879 50.0261C44.5509 50.3201 44.0789 50.5791 43.6729 50.9121C43.1199 51.3611 42.4559 51.6021 41.8749 51.9751C41.2499 52.3741 40.5349 52.5221 39.9289 52.8841C39.2109 53.3131 38.4229 53.4731 37.6599 53.7031C36.7239 53.9861 35.7719 54.2111 34.7879 54.3481C32.7349 54.6281 30.6909 54.5441 28.6429 54.4601C27.7429 54.4211 26.8119 54.3061 25.9649 54.0141C25.0369 53.6971 24.0659 53.5261 23.1629 53.1481C22.7309 52.9681 22.3059 52.7781 21.8849 52.5721C21.1409 52.2081 20.3819 51.8631 19.6689 51.4401C19.1469 51.1311 18.6899 50.7051 18.1969 50.3431C17.9979 50.1941 17.7669 50.0851 17.5679 49.9391C17.0919 49.5831 16.6149 49.2301 16.1579 48.8481C15.9729 48.6911 15.8569 48.4531 15.6829 48.2791C15.2259 47.8301 14.7469 47.4041 14.2929 46.9551C14.1519 46.8181 14.0679 46.6301 13.9539 46.4701C13.5559 45.9181 13.1739 45.3541 12.7539 44.8211C12.2309 44.1511 11.7889 43.4411 11.4239 42.6751C10.9309 41.6351 10.3579 40.6371 10.0749 39.4951C9.9969 39.1871 9.8139 38.8561 9.7079 38.5251C9.6429 38.3231 9.6319 38.1071 9.5899 37.8581Z" fill="#E9ECF0"/>
<path fill-rule="evenodd" clip-rule="evenodd" d="M39.6707 28.5105C38.7817 30.7935 37.9087 33.0365 37.0287 35.3055H34.0567C34.1257 35.1175 34.1887 34.9745 34.2347 34.8285C34.3927 34.3465 34.4797 33.8245 34.7177 33.3845C34.9677 32.9245 35.1057 32.4285 35.3177 31.9575C35.5027 31.5535 35.5277 31.0735 35.9037 30.7515C35.9717 30.6955 35.9147 30.4955 35.9147 30.2235C35.7077 30.4205 35.5657 30.5185 35.4757 30.6535C35.1807 31.0935 34.9317 31.5645 34.6167 31.9885C34.1797 32.5885 33.7077 33.1635 33.2337 33.7325C32.8027 34.2515 32.3487 34.7535 31.8937 35.2495C31.8377 35.3115 31.7087 35.3285 31.6127 35.3285C30.7327 35.3335 29.8527 35.3305 28.8967 35.3305C28.8847 34.9745 28.8907 34.6355 28.8537 34.3025C28.8287 34.0695 28.7437 33.8445 28.6917 33.6175C28.6597 33.4855 28.6147 33.3485 28.6237 33.2165C28.6577 32.5765 28.4887 31.9345 28.8307 31.3015C28.9827 31.0205 28.9967 30.5775 28.7747 30.2125C28.1547 31.9125 27.5467 33.5785 26.9217 35.2915H23.9147C23.9627 34.4555 24.5157 33.8085 24.7337 33.0455C24.9577 32.2655 25.3737 31.5455 25.6197 30.7575C25.8607 29.9915 26.2207 29.2595 26.5317 28.5055H31.4617C31.3477 29.3745 31.6277 30.2125 31.2517 31.0265C31.1947 31.1435 31.2267 31.2985 31.2097 31.4355C31.1367 32.0305 31.0587 32.6245 30.9907 33.2185C30.9717 33.3955 30.9877 33.5755 30.9877 33.7525C31.0267 33.7605 31.0687 33.7685 31.1077 33.7775C31.3977 33.2615 31.6527 32.7195 31.9837 32.2325C32.3147 31.7415 32.7247 31.3065 33.0887 30.8385C33.2317 30.6565 33.3377 30.4455 33.4697 30.2555C33.8097 29.7665 34.1537 29.2875 34.4907 28.7965C34.6457 28.5725 34.8167 28.4515 35.1127 28.4545C36.4957 28.4685 37.8757 28.4605 39.2587 28.4625C39.3907 28.4625 39.5197 28.4905 39.6707 28.5105Z" fill="#E9ECF0"/>
<path fill-rule="evenodd" clip-rule="evenodd" d="M20.5252 28.2224C21.2492 28.3094 21.9832 28.3824 22.7102 28.4924C22.9902 28.5344 23.2652 28.6454 23.5292 28.7614C23.9412 28.9404 24.0252 29.1394 23.8932 29.5574C23.7612 29.9784 23.6222 30.3954 23.4812 30.8114C23.4002 31.0554 23.1842 31.1194 23.0182 30.8954C22.5052 30.2104 21.7702 30.1264 21.0162 30.1074C20.3632 30.0904 19.7042 30.0844 19.0532 30.1494C18.4502 30.2084 17.9222 30.4434 17.3872 30.7914C16.7612 31.1984 16.5652 31.8204 16.2142 32.3644C16.0832 32.5694 16.0522 32.9114 16.3332 33.1614C16.5292 33.3324 16.6192 33.6604 16.8322 33.7664C17.5242 34.1124 18.2762 34.1204 19.0362 33.9964C19.6082 33.9044 19.7742 33.4474 19.9732 33.0184C20.1072 32.7294 20.1972 32.4204 20.3122 32.1234C20.3962 31.9074 20.5472 31.8204 20.7922 31.8264C21.4642 31.8434 22.1382 31.8264 22.8112 31.8344C23.1892 31.8404 23.2762 31.9154 23.1892 32.2554C23.0492 32.7934 22.9212 33.3574 22.6542 33.8344C22.4742 34.1544 22.0932 34.3984 21.7542 34.5774C21.3672 34.7794 20.8842 34.8074 20.5142 35.0294C19.9532 35.3654 19.3342 35.3624 18.7452 35.4134C17.8612 35.4894 16.9632 35.4154 16.0752 35.4044C16.0242 35.4024 15.9732 35.3574 15.9262 35.3624C15.2672 35.4384 14.7932 34.9724 14.2382 34.7574C14.0042 34.6644 13.8452 34.3724 13.6692 34.1594C13.4582 33.8984 13.3482 33.6104 13.2702 33.2674C13.1612 32.7964 13.3292 32.3844 13.3822 31.9554C13.4162 31.6974 13.6492 31.4704 13.7692 31.2204C14.2232 30.2784 15.0142 29.7064 15.9032 29.2184C16.7552 28.7494 17.6622 28.5344 18.6162 28.4444C19.2472 28.3854 19.8752 28.2984 20.5252 28.2224Z" fill="#E9ECF0"/>
<path fill-rule="evenodd" clip-rule="evenodd" d="M50.2166 28.8655C50.2786 29.7965 49.6336 30.3455 49.5166 31.1675C49.2246 30.9095 49.0476 30.6745 48.8116 30.5615C48.4336 30.3825 48.0236 30.2145 47.6116 30.1695C46.5786 30.0575 45.5556 30.1105 44.5706 30.5145C43.7886 30.8345 43.0146 31.8525 43.0066 32.6345C43.0006 33.2455 43.4606 33.7445 44.0496 33.8715C44.9276 34.0615 45.7996 33.9915 46.6546 33.8315C47.0226 33.7645 47.4346 33.7255 47.7606 33.4035C47.9986 33.1675 48.3856 33.0835 48.7806 32.9015C48.6236 33.3525 48.4646 33.6915 48.3946 34.0455C48.3126 34.4665 48.0036 34.6395 47.6876 34.7655C46.1756 35.3575 44.6086 35.6405 42.9816 35.4895C42.5576 35.4505 42.1036 35.4365 41.7226 35.2705C41.1806 35.0375 40.6676 34.7125 40.1956 34.3535C40.0116 34.2135 39.9296 33.8905 39.8736 33.6355C39.7106 32.8985 39.8096 32.1555 40.1176 31.4845C40.3426 30.9965 40.7236 30.5815 41.0486 30.1445C41.4816 29.5665 42.1736 29.3395 42.7456 28.9635C43.1526 28.6945 43.6986 28.6045 44.1976 28.5175C45.3876 28.3155 46.5936 28.1645 47.7966 28.3185C48.5986 28.4195 49.3836 28.6715 50.2166 28.8655Z" fill="#E9ECF0"/>
<path fill-rule="evenodd" clip-rule="evenodd" d="M6.26153 25.2034C6.21353 25.1274 6.18553 25.0204 6.12053 24.9874C5.61153 24.7154 5.08853 24.4654 4.58053 24.1904C4.49453 24.1454 4.40953 24.0164 4.40553 23.9214C4.39053 23.7364 4.43253 23.5484 4.45753 23.3074C4.64353 23.3074 4.84253 23.2454 4.96553 23.3184C5.35253 23.5374 5.81853 23.4394 6.20753 23.7364C6.49053 23.9524 6.95353 23.9304 7.33253 24.0284C7.51753 24.0764 7.69453 24.1604 7.89353 24.2324C7.79253 24.4344 7.72553 24.5664 7.67153 24.6764C7.12453 24.4064 6.59253 24.1994 6.05353 24.2384C6.16253 24.3904 6.24153 24.6084 6.39353 24.6954C6.74053 24.8974 7.12453 25.0354 7.49253 25.1944C7.58153 25.7894 7.53453 25.8624 6.97953 25.8394C6.67353 25.8264 6.37053 25.7474 6.06253 25.7164C5.86553 25.6994 5.66653 25.7134 5.47053 25.7134C5.46453 25.7554 5.45553 25.8004 5.45053 25.8424C6.00853 26.0444 6.56753 26.2444 7.15353 26.4564C7.24853 26.7124 7.14753 26.8574 6.88053 26.8184C6.49353 26.7594 6.10753 26.6674 5.73153 26.5604C5.19853 26.4094 4.67353 26.2354 4.14953 26.0614C4.00953 26.0144 3.88353 25.9154 3.75153 25.8424C3.86353 25.6154 3.96653 25.4024 4.06853 25.2034H6.26153Z" fill="#E9ECF0"/>
<path fill-rule="evenodd" clip-rule="evenodd" d="M6.26349 41.2229C6.54149 41.1109 6.85549 41.0439 7.07649 40.8639C7.20049 40.7659 7.24749 40.4429 7.18349 40.2779C7.13549 40.1489 6.86449 40.0449 6.68749 40.0419C6.47649 40.0369 6.25549 40.1289 6.05649 40.2159C5.80349 40.3229 5.62649 40.5189 5.68849 40.8079C5.74749 41.0829 5.96949 41.1699 6.26349 41.2229ZM8.22949 41.1019C7.06949 41.5119 5.97749 41.8959 4.80549 42.3079C4.74349 42.1849 4.67649 42.0499 4.58649 41.8739C4.77449 41.7869 5.03749 41.6599 5.36149 41.5059C5.30749 41.3999 5.26849 41.2539 5.17849 41.1559C4.84149 40.7999 4.81149 40.2779 5.21749 40.0789C5.79249 39.7979 6.32349 39.3549 7.04849 39.4589C7.59849 39.5369 7.88149 39.8089 7.77249 40.3539C7.70149 40.7099 7.96349 40.8189 8.22949 41.1019Z" fill="#E9ECF0"/>
<path fill-rule="evenodd" clip-rule="evenodd" d="M13.6268 50.2747C13.4918 50.2047 13.3568 50.1377 13.2308 50.0727C12.7268 50.2127 12.9318 50.6137 12.9368 50.9197C12.4088 51.0207 12.3928 51.0067 12.0328 50.3787C12.3878 50.0307 12.7008 49.6467 13.2758 49.6127C13.9148 49.5797 14.3778 50.2577 14.2318 50.8407C14.1138 51.3097 13.8978 51.7557 13.5668 52.0777C13.0678 52.5637 12.4568 52.8607 11.7138 52.6557C11.3808 52.5637 11.2058 52.3247 11.1078 52.0327C11.0068 51.7357 11.0768 51.4667 11.3298 51.3007C11.6298 51.6157 11.9188 51.9207 12.2278 52.2497C12.6008 51.9857 12.9288 51.7527 13.2538 51.5257C13.6858 51.2227 13.7668 50.8047 13.6268 50.2747Z" fill="#E9ECF0"/>
<path fill-rule="evenodd" clip-rule="evenodd" d="M32.8201 4.85519V7.07619C33.4571 7.28919 33.5271 7.23919 33.5911 6.61919C33.6471 6.07519 33.7311 5.53319 33.8071 4.97319H34.2331C34.2331 5.84819 34.2451 6.68919 34.2221 7.53019C34.2191 7.64019 34.0531 7.83319 33.9621 7.83619C33.7961 7.84119 33.6281 7.73019 33.3971 7.64319C33.3471 7.67319 33.2101 7.81319 33.0521 7.84719C32.5881 7.94219 32.1471 7.58619 32.1281 7.09819C32.0991 6.41419 32.0931 5.72419 32.4021 5.09019C32.4501 4.98919 32.6331 4.95619 32.8201 4.85519Z" fill="#E9ECF0"/>
<path fill-rule="evenodd" clip-rule="evenodd" d="M8.68927 16.6321C8.77327 16.2541 9.04827 16.2201 9.32327 16.2121C9.33927 16.1381 9.35627 16.0911 9.36227 16.0401C9.39627 15.7821 9.26727 15.4431 9.61227 15.3221C9.98227 15.1941 10.3493 15.2501 10.6713 15.5131C11.0433 15.8191 11.4043 16.1361 11.8023 16.3991C12.2483 16.6941 12.2643 16.6721 11.8353 17.1141C11.6363 16.9861 11.4203 16.8621 11.2243 16.7141C10.9723 16.5261 10.7453 16.3121 10.4933 16.1271C10.2623 15.9561 9.90927 15.9791 9.79627 16.1441C9.66527 16.3381 9.75427 16.6601 9.98527 16.8401C10.3663 17.1341 10.7553 17.4231 11.1213 17.7371C11.1853 17.7901 11.1853 17.9701 11.1543 18.0731C11.1243 18.1741 11.0113 18.2501 10.9413 18.3321C10.1953 17.7681 9.44927 17.2041 8.68927 16.6321Z" fill="#E9ECF0"/>
<path fill-rule="evenodd" clip-rule="evenodd" d="M9.31231 44.7615C9.18031 44.6045 9.10431 44.4895 9.00631 44.3995C8.60231 44.0355 8.26631 44.4165 7.93831 44.5425C7.58731 44.6805 7.46931 45.0535 7.59031 45.2885C7.74531 45.5895 8.10131 45.6675 8.47631 45.4715C8.63931 45.3865 8.80131 45.2885 8.94231 45.1715C9.06831 45.0675 9.16631 44.9275 9.31231 44.7615ZM8.86631 43.7125C9.16131 43.6655 9.42731 43.7825 9.57331 44.0575C9.79431 44.4755 9.92931 44.9275 9.55331 45.3335C9.38831 45.5105 9.17431 45.6645 8.95631 45.7605C8.68431 45.8725 8.52431 46.1365 8.17031 46.1605C7.47231 46.2145 7.04931 45.9985 6.85231 45.3335C6.75431 44.9975 6.89431 44.6695 7.11331 44.4925C7.61331 44.0915 8.12831 43.6655 8.86631 43.7125Z" fill="#E9ECF0"/>
<path fill-rule="evenodd" clip-rule="evenodd" d="M53.4646 17.9309C53.5036 18.3849 53.7556 18.6909 54.1346 18.7719C54.3616 18.0259 54.2076 17.8189 53.4646 17.9309ZM53.0216 18.3989C52.6566 18.4549 52.5226 18.5809 52.5136 18.8589C52.4966 19.3359 52.8476 19.4709 53.1926 19.6279C52.7016 19.9559 52.1856 19.7449 52.0986 19.1989C51.9786 18.4579 52.1856 18.0909 52.8506 17.6869C53.1056 17.5299 53.3206 17.3559 53.6446 17.3169C54.2106 17.2469 54.6006 17.4369 54.8326 17.9759C54.9846 18.3239 54.8026 18.7639 54.3926 19.0609C54.3176 19.1149 54.2606 19.1929 54.1956 19.2599C53.9636 19.5069 53.6466 19.4399 53.4846 19.1389C53.3436 18.8759 53.1696 18.6319 53.0216 18.3989Z" fill="#E9ECF0"/>
<path fill-rule="evenodd" clip-rule="evenodd" d="M13.1443 11.6218C13.4213 11.4978 13.5953 11.5598 13.7663 11.7598C14.0943 12.1438 14.4513 12.5048 14.7853 12.8898C14.9473 13.0778 15.0793 13.2928 15.2333 13.5118C15.1103 13.6468 15.0033 13.7648 14.8913 13.8908C14.8303 13.8398 14.7653 13.7898 14.6753 13.7168C14.6533 13.7898 14.6243 13.8488 14.6163 13.9078C14.5463 14.5498 14.1573 14.7468 13.5703 14.4298C13.4813 14.3848 13.3693 14.3618 13.3033 14.2948C12.9123 13.8538 12.5213 13.4088 12.1453 12.9518C12.0793 12.8728 12.0893 12.7298 12.0613 12.6148C12.2023 12.5918 12.3733 12.5108 12.4763 12.5608C12.6503 12.6508 12.7903 12.8168 12.9253 12.9648C13.1973 13.2658 13.4503 13.5878 13.7303 13.8798C13.7893 13.9378 14.0223 13.9438 14.0503 13.9018C14.1543 13.7228 14.3803 13.5398 14.2203 13.3048C13.9943 12.9738 13.7443 12.6568 13.4813 12.3568C13.2953 12.1438 13.0483 11.9758 13.1443 11.6218Z" fill="#E9ECF0"/>
<path fill-rule="evenodd" clip-rule="evenodd" d="M41.3387 7.572C41.3047 8.083 41.5797 8.276 42.1937 8.2C42.2497 7.592 42.0477 7.435 41.3387 7.572ZM40.8897 8.427C40.7097 8.879 40.8457 9.207 41.1137 9.373C41.3527 9.519 41.6927 9.499 41.9917 9.552C41.6507 9.992 41.1707 10.012 40.7047 9.693C40.5677 9.603 40.4607 9.415 40.4187 9.252C40.2707 8.66 40.4097 8.08 40.6767 7.57C40.9537 7.036 41.6867 6.722 42.2307 7.093C42.5497 7.311 42.6647 7.612 42.6347 7.965C42.6147 8.215 42.5447 8.469 42.4387 8.697C42.3987 8.786 42.1777 8.879 42.0877 8.845C41.8797 8.767 41.6247 8.818 41.4617 8.556C41.3897 8.442 41.0917 8.467 40.8897 8.427Z" fill="#E9ECF0"/>
<path fill-rule="evenodd" clip-rule="evenodd" d="M50.2156 50.9378C49.9206 51.1708 49.7136 51.3358 49.5056 51.5048C49.3766 51.6078 49.3316 51.7288 49.4786 51.8438C49.7416 52.0538 50.2376 51.8468 50.2716 51.5068C50.2856 51.3478 50.2406 51.1788 50.2156 50.9378ZM49.4756 50.2928C48.8806 50.2008 48.8716 50.1948 48.5886 50.6938C48.4856 50.8738 48.4016 51.0248 48.1626 50.9658C47.9996 50.4188 48.3446 49.8758 48.8976 49.8078C49.6466 49.7208 50.3556 50.1618 50.6616 50.8988C50.7256 51.0498 50.8186 51.1878 50.8916 51.3338C50.9196 51.3928 50.9586 51.4848 50.9336 51.5268C50.7506 51.8158 50.6086 52.1888 50.3416 52.3518C50.1316 52.4798 49.7436 52.3988 49.4666 52.3148C49.2676 52.2558 49.0706 52.1408 48.9086 51.9338C48.6906 51.6498 48.8046 51.5098 48.9796 51.3308C49.1086 51.1988 49.2346 51.0618 49.3766 50.9518C49.6326 50.7588 49.6326 50.5398 49.4756 50.2928Z" fill="#E9ECF0"/>
<path fill-rule="evenodd" clip-rule="evenodd" d="M52.1355 14.9265C52.1635 14.4635 52.0175 14.1945 51.6115 14.0455C51.2335 13.9085 50.9895 14.1695 50.7165 14.2865C50.3435 14.4495 50.2235 14.8675 50.0825 15.2235C49.9895 15.4565 50.3135 15.9055 50.6045 16.0035C50.7105 16.0395 50.8285 16.0515 50.9665 16.0765C50.5315 16.3965 50.1275 16.4325 49.7655 16.1825C49.6735 16.1185 49.5895 16.0175 49.5445 15.9165C49.3335 15.4505 49.5465 14.6935 49.9565 14.3485C50.0825 14.2415 50.2025 14.1185 50.2925 13.9785C50.5735 13.5385 51.0505 13.4435 51.4905 13.2975C51.8075 13.1935 52.3855 13.5215 52.4975 13.8325C52.6625 14.2955 52.5595 14.6765 52.1355 14.9265Z" fill="#E9ECF0"/>
<path fill-rule="evenodd" clip-rule="evenodd" d="M54.0486 44.5413C54.5366 43.9943 54.5366 43.9943 54.2506 43.7223C53.9586 43.4413 53.9586 43.4413 53.5586 43.8403C53.7116 44.0593 53.8656 44.2803 54.0486 44.5413ZM55.4896 43.8033C55.8916 43.9833 56.0516 44.2743 55.9496 44.6173C55.9196 44.7313 55.8716 44.8413 55.8496 44.9593C55.7926 45.2533 55.6086 45.3913 55.3216 45.4083C54.8116 45.4383 54.3736 45.2783 53.9726 44.9563C53.7966 44.8133 53.5466 44.7653 53.3396 44.6593C53.1936 44.5833 53.0616 44.4823 52.9696 44.4233C53.0756 44.1063 53.1936 43.8483 53.2406 43.5763C53.3196 43.1303 53.4626 42.9713 53.8916 42.9653C54.4076 42.9593 54.6796 43.1393 54.7276 43.5713C54.7556 43.8403 54.7276 44.1203 54.7166 44.3953C54.7076 44.6143 54.7046 44.8243 54.9966 44.8503C55.2606 44.8723 55.4316 44.7183 55.4646 44.4203C55.4766 44.3193 55.4676 44.2163 55.4706 44.1123C55.4736 44.0113 55.4826 43.9133 55.4896 43.8033Z" fill="#E9ECF0"/>
<path fill-rule="evenodd" clip-rule="evenodd" d="M8.27807 20.2991C8.27807 20.5661 8.24407 20.7931 8.29207 20.9981C8.31707 21.0961 8.49707 21.2051 8.61507 21.2161C8.68707 21.2251 8.82807 21.0731 8.85307 20.9691C8.93707 20.6301 8.78607 20.4511 8.27807 20.2991ZM6.86507 20.9131C6.77507 20.7841 6.62307 20.6581 6.61207 20.5241C6.59007 20.2741 6.59007 19.9931 6.68507 19.7721C6.87007 19.3511 7.32407 19.2161 7.77907 19.3991C8.24707 19.5871 8.71307 19.7831 9.17007 19.9991C9.31207 20.0691 9.45907 20.1871 9.54007 20.3211C9.58507 20.3951 9.51207 20.5571 9.45907 20.6581C9.40807 20.7541 9.23707 20.8351 9.24907 20.9001C9.33307 21.4041 9.06007 21.6741 8.66807 21.8781C8.46807 21.7881 8.24407 21.7351 8.08707 21.6031C7.93607 21.4741 7.79307 21.2751 7.75707 21.0851C7.71207 20.8211 7.77607 20.5381 7.78207 20.2631C7.78507 20.0551 7.79007 19.8171 7.49607 19.8081C7.24007 19.8031 7.09107 19.9741 7.04907 20.2101C7.00707 20.4251 7.00707 20.6501 6.99107 20.8681C6.94907 20.8821 6.90707 20.9001 6.86507 20.9131Z" fill="#E9ECF0"/>
<path fill-rule="evenodd" clip-rule="evenodd" d="M21.1199 8.4197C20.8759 8.6807 20.7079 8.8317 20.5729 9.0107C20.5059 9.1007 20.4249 9.2807 20.4669 9.3387C20.5449 9.4517 20.6989 9.5527 20.8339 9.5687C20.9289 9.5807 21.1199 9.4547 21.1279 9.3727C21.1589 9.0897 21.1279 8.8007 21.1199 8.4197ZM20.9089 8.0297C20.8169 7.9067 20.7409 7.8187 20.6829 7.7207C20.5419 7.4937 20.4009 7.5447 20.2329 7.6957C20.0199 7.8927 19.7939 8.0747 19.5519 8.2787C19.3779 7.6397 19.5299 7.3507 20.0959 7.1437C20.5839 6.9637 21.0659 7.1717 21.2709 7.6487C21.4809 8.1357 21.6969 8.6247 21.8959 9.1147C21.9469 9.2357 22.0029 9.4177 21.9499 9.4997C21.8439 9.6587 21.6609 9.7657 21.4959 9.4657C21.3999 9.6117 21.3519 9.6957 21.2939 9.7717C21.0389 10.1047 20.7219 10.1867 20.4129 10.0017C20.0589 9.7877 19.8549 9.3057 20.0459 9.0027C20.1909 8.7707 20.2589 8.4557 20.5989 8.3607C20.7189 8.3237 20.8009 8.1497 20.9089 8.0297Z" fill="#E9ECF0"/>
<path fill-rule="evenodd" clip-rule="evenodd" d="M5.4402 35.8152C5.5972 36.0652 5.7112 36.2832 5.8632 36.4742C5.9192 36.5442 6.0872 36.5942 6.1582 36.5612C6.2422 36.5192 6.3122 36.3782 6.3232 36.2752C6.3662 35.8772 6.0962 35.7222 5.4402 35.8152ZM6.7352 35.3862C6.5792 35.6212 6.6342 35.7902 6.7972 36.0202C7.0642 36.3872 6.9742 36.5582 6.6792 36.8952C6.4552 37.1552 6.1662 37.2792 5.9222 37.1132C5.6022 36.8982 5.2522 36.6622 5.1312 36.2352C5.0972 36.1182 4.9552 35.9662 4.8482 35.9552C4.7302 35.9382 4.5142 36.0392 4.4832 36.1352C4.4362 36.2892 4.4612 36.5052 4.5372 36.6502C4.6152 36.7992 4.7922 36.8982 4.9322 37.0212C4.4952 37.3292 4.2932 37.3182 4.1252 36.8862C4.0032 36.5722 4.0122 36.1962 4.0212 35.8492C4.0242 35.7452 4.2142 35.5772 4.3352 35.5572C5.0612 35.4472 5.7942 35.3722 6.5252 35.2912C6.5822 35.2852 6.6462 35.3442 6.7352 35.3862Z" fill="#E9ECF0"/>
<path fill-rule="evenodd" clip-rule="evenodd" d="M29.5711 4.93971C29.6671 5.55371 29.6671 5.55371 28.9291 5.68271C28.9291 6.08171 28.8861 6.49071 28.9401 6.88871C28.9931 7.28971 29.2231 7.35671 29.8241 7.16871C29.7281 7.42771 29.6581 7.62371 29.5771 7.83971H28.7051C28.3031 7.37371 28.3841 6.82971 28.3541 6.30871C28.3401 6.06171 28.4011 5.79471 28.0681 5.66071C27.8661 5.57671 27.9331 5.40471 28.0371 5.23371C28.2031 4.96771 28.3291 4.68171 28.5031 4.34471C28.9011 4.24171 28.8001 4.67871 28.9311 4.90871C29.1341 4.91971 29.3391 4.92871 29.5711 4.93971Z" fill="#E9ECF0"/>
<path fill-rule="evenodd" clip-rule="evenodd" d="M58.6551 25.53C58.4111 25.687 58.1591 25.763 58.0861 25.923C58.0241 26.06 58.1651 26.293 58.2321 26.551C57.9761 26.582 57.7721 26.61 57.6121 26.63C57.4681 26.346 57.3571 26.119 57.2591 25.926C56.9391 26.001 56.7121 26.063 56.4791 26.105C55.9461 26.2 55.7781 26.439 55.8871 26.974C55.5821 27.03 55.2191 26.887 55.1551 26.663C55.0711 26.377 55.1281 26.13 55.4271 25.993C55.6541 25.886 55.8821 25.715 56.1171 25.701C56.5491 25.679 56.8431 25.474 57.1161 25.179C57.2901 24.992 57.4441 24.88 57.7211 25.09C57.9261 25.244 58.2351 25.253 58.4901 25.345C58.5601 25.373 58.6051 25.471 58.6551 25.53Z" fill="#E9ECF0"/>
<path fill-rule="evenodd" clip-rule="evenodd" d="M17.824 11.7014C17.328 11.8474 17.097 11.7494 16.865 11.2474C16.685 10.8574 16.472 10.5764 16.046 10.6274C15.931 10.2154 15.81 9.83941 15.726 9.45541C15.605 8.88841 15.849 8.50741 16.366 8.40041C16.582 8.35541 16.582 8.35541 16.848 8.67541C16.7 8.78441 16.564 8.91941 16.402 8.99841C16.212 9.09041 16.085 9.25641 16.217 9.39041C16.357 9.53141 16.472 9.83941 16.783 9.70141C16.949 9.62941 17.114 9.55341 17.3 9.46641C17.376 9.61241 17.428 9.71341 17.499 9.84741C17.325 9.98241 17.154 10.1144 16.98 10.2484C17.246 10.7084 17.521 11.1804 17.824 11.7014Z" fill="#E9ECF0"/>
<path fill-rule="evenodd" clip-rule="evenodd" d="M51.0027 47.9158C50.9807 47.7698 50.9487 47.6238 50.9387 47.4758C50.8987 46.9738 51.3727 46.7018 51.8077 46.9168C52.1517 47.0888 52.5337 47.2568 52.7747 47.5318C52.9747 47.7588 53.1257 47.7898 53.3747 47.7528C53.4837 47.7368 53.6057 47.7918 53.6727 47.8068C53.8017 48.2498 53.9167 48.6448 54.0537 49.1248C53.6307 48.9058 53.2097 48.6788 52.9747 49.2698C52.7977 49.1978 52.6437 49.1358 52.4127 49.0408C52.5697 48.7828 52.7167 48.5408 52.8957 48.2438C52.2757 48.1318 52.0547 47.4928 51.4847 47.4338C51.3507 47.6188 51.2317 47.7788 51.1147 47.9378C51.0777 47.9328 51.0387 47.9238 51.0027 47.9158Z" fill="#E9ECF0"/>
<path fill-rule="evenodd" clip-rule="evenodd" d="M58.2586 33.1819C58.2376 33.4119 58.2186 33.6139 58.1986 33.8519C58.0446 33.8629 57.8996 33.8739 57.7536 33.8859C57.7226 33.8099 57.6926 33.7649 57.6866 33.7179C57.6156 33.1759 57.5966 33.1599 57.0496 33.1509C56.7576 33.1479 56.4636 33.1619 56.1716 33.1369C56.0786 33.1279 55.9916 33.0139 55.9046 32.9489C55.9916 32.8649 56.0706 32.7239 56.1716 32.7049C56.3706 32.6659 56.5836 32.6909 56.7916 32.6969C57.1506 32.7049 57.4926 32.7389 57.7256 32.3429C57.8436 32.1499 58.1236 32.1389 58.2076 32.3879C58.3256 32.7299 58.5676 32.7219 58.8216 32.6939C59.2816 32.6429 59.6496 33.0359 59.5536 33.5689C59.5336 33.6749 59.4636 33.7869 59.3886 33.8689C59.3296 33.9359 59.2086 34.0089 59.1416 33.9899C59.0736 33.9699 59.0376 33.8379 58.9926 33.7539C58.9846 33.7399 58.9956 33.7199 58.9926 33.7029C58.9536 33.1029 58.9536 33.1029 58.2586 33.1819Z" fill="#E9ECF0"/>
<path fill-rule="evenodd" clip-rule="evenodd" d="M25.3201 6.2932C24.6331 6.1192 24.3691 6.3212 24.4231 6.9892C24.4451 7.2502 24.5261 7.5242 24.6521 7.7542C24.8881 8.1782 25.3561 8.0832 25.6681 7.5722C25.9281 8.1332 25.7521 8.4192 25.1571 8.4922C24.5681 8.5622 23.9631 8.0832 23.9071 7.4942C23.8951 7.3622 23.8501 7.2272 23.7991 7.1012C23.5951 6.5682 23.7891 6.0722 24.1591 5.7662C24.3781 5.5862 24.8381 5.6702 25.1851 5.6902C25.3621 5.7022 25.3731 5.8162 25.3201 6.2932Z" fill="#E9ECF0"/>
<path fill-rule="evenodd" clip-rule="evenodd" d="M55.0066 40.7346C54.9426 40.6926 54.8016 40.6506 54.7676 40.5666C54.5486 40.0366 54.8776 39.2456 55.5196 39.2346C56.2116 39.2206 56.8126 39.3746 57.3396 39.8176C57.6036 40.0366 57.7186 40.4286 57.6006 40.7316C57.4186 41.2006 57.2416 41.3456 56.8886 41.3176C56.5936 41.2926 56.5516 41.1976 56.7286 40.9366C57.0506 40.4546 56.9556 40.1956 56.3946 39.9266C56.0186 39.7476 55.6566 39.6966 55.3616 40.0226C55.2106 40.1936 55.1466 40.4426 55.0066 40.7346Z" fill="#E9ECF0"/>
<path fill-rule="evenodd" clip-rule="evenodd" d="M45.4197 8.8367C45.7447 8.8587 45.8497 9.0697 45.8437 9.3367C46.0337 9.2937 46.2217 9.1987 46.3707 9.2377C46.4997 9.2737 46.5927 9.4617 46.7037 9.5887C46.6087 9.7567 46.5197 9.9167 46.4097 10.1097C46.3007 10.0627 46.1967 10.0177 46.0897 9.9727C45.7207 9.8207 45.4337 9.9197 45.2127 10.2507C44.9847 10.5947 44.7557 10.9407 44.4997 11.2627C44.4387 11.3387 44.2027 11.3827 44.1497 11.3327C44.0627 11.2487 43.9837 11.0467 44.0287 10.9517C44.1667 10.6457 44.3547 10.3597 44.5417 10.0817C44.8167 9.6727 45.1107 9.2737 45.4197 8.8367Z" fill="#E9ECF0"/>
<path fill-rule="evenodd" clip-rule="evenodd" d="M38.4852 6.5056C38.2212 6.4776 37.9552 6.3676 37.8512 6.4546C37.6242 6.6516 37.4272 6.9206 37.3102 7.1976C37.1702 7.5236 37.1252 7.8876 37.0352 8.2526H36.4912C36.5942 7.8176 36.5302 7.4166 36.8082 7.0246C37.0102 6.7406 36.9822 6.3036 37.0772 5.9416C37.1172 5.7936 37.1752 5.5776 37.2852 5.5326C37.5092 5.4366 37.6102 5.6386 37.6722 5.8326C37.6832 5.8606 37.7222 5.8776 37.7482 5.8996C37.9712 5.8126 38.1992 5.7196 38.4852 5.6086V6.5056Z" fill="#E9ECF0"/>
<path fill-rule="evenodd" clip-rule="evenodd" d="M8.7322 49.6751C8.6562 49.4701 8.6112 49.3441 8.5542 49.1931C8.6592 49.1061 8.7732 49.0081 8.8912 48.9121C9.0792 48.7581 9.2612 48.5981 9.4552 48.4581C9.6732 48.3011 9.9122 48.1751 10.1262 48.0151C10.4602 47.7711 10.7762 47.5021 11.1102 47.2581C11.2782 47.1341 11.4632 47.1261 11.5862 47.3361C11.6932 47.5211 11.6262 47.6581 11.4492 47.7651C11.2082 47.9141 10.9592 48.0511 10.7372 48.2251C10.2072 48.6461 9.6962 49.0921 9.1662 49.5091C9.0572 49.5961 8.8972 49.6161 8.7322 49.6751Z" fill="#E9ECF0"/>
<path fill-rule="evenodd" clip-rule="evenodd" d="M53.8885 22.2312C54.5855 21.9112 55.2825 21.5832 55.9915 21.2832C56.1315 21.2242 56.3195 21.2722 56.4855 21.2722V21.8662C56.5575 21.9082 56.6925 21.9562 56.7825 22.0432C56.8835 22.1412 57.0765 22.2732 56.9005 22.4182C56.7735 22.5172 56.4675 22.6042 56.4145 22.5422C55.8365 21.8922 55.2535 22.2142 54.6595 22.4832C54.5525 22.5312 54.4325 22.5562 54.3145 22.5732C54.0225 22.6092 54.0225 22.6042 53.8885 22.2312Z" fill="#E9ECF0"/>
<path fill-rule="evenodd" clip-rule="evenodd" d="M6.58571 32.1892V32.7222C6.40871 32.7312 6.24271 32.7452 6.07471 32.7452C5.21471 32.7472 4.35071 32.7472 3.48571 32.7472C3.43671 32.7472 3.38271 32.7532 3.33271 32.7452C3.11871 32.7192 2.81871 32.7702 2.83571 32.4442C2.85071 32.1722 3.12471 32.1922 3.32671 32.1922C4.39571 32.1872 5.46071 32.1892 6.58571 32.1892Z" fill="#E9ECF0"/>
<path fill-rule="evenodd" clip-rule="evenodd" d="M55.8924 30.1111C55.8774 29.8791 55.8644 29.6961 55.8464 29.4551C56.1104 29.4381 56.3294 29.4331 56.5474 29.4101C57.1254 29.3541 57.7064 29.2901 58.2874 29.2311C58.5194 29.2081 58.6764 29.3121 58.6214 29.5531C58.5984 29.6491 58.4444 29.7631 58.3344 29.7801C58.0654 29.8221 57.7854 29.8111 57.5094 29.8341C57.1404 29.8641 56.7554 29.7751 56.4244 30.0581C56.3294 30.1391 56.1244 30.0911 55.8924 30.1111Z" fill="#E9ECF0"/>
<path fill-rule="evenodd" clip-rule="evenodd" d="M55.6795 36.7039C55.5895 36.3259 55.7075 36.2099 55.9775 36.2489C56.7845 36.3729 57.5895 36.4989 58.3775 36.6219C58.4135 37.1749 58.4035 37.2089 57.9925 37.1689C57.7515 37.1439 57.5195 37.0289 57.2785 36.9649C57.1495 36.9309 57.0145 36.9089 56.8795 36.8889C56.4795 36.8249 56.0775 36.7659 55.6795 36.7039Z" fill="#E9ECF0"/>
<path fill-rule="evenodd" clip-rule="evenodd" d="M59.158 36.6824V37.3474C58.866 37.3694 58.653 37.3444 58.656 37.0274C58.656 36.7184 58.88 36.6934 59.158 36.6824Z" fill="#E9ECF0"/>
</svg>
