<svg width="52" height="24" viewBox="0 0 52 24" fill="none" xmlns="http://www.w3.org/2000/svg">
<rect x="0.5" y="0.5" width="51" height="23" fill="white" stroke="#E6E6E7"/>
<path d="M19.9801 15.5H17.8639L14.4479 9.55957H14.3995C14.4675 10.6087 14.5016 11.3571 14.5016 11.8047V15.5H13.0138V7.64746H15.1139L18.5245 13.5288H18.5621C18.5084 12.5083 18.4815 11.7868 18.4815 11.3643V7.64746H19.9801V15.5ZM27.5845 15.5H23.062V7.64746H27.5845V9.01172H24.7271V10.7358H27.3857V12.1001H24.7271V14.125H27.5845V15.5ZM37.9765 15.5H36.0805L35.017 11.375C34.9776 11.2282 34.9096 10.9256 34.8129 10.4673C34.7198 10.0054 34.6661 9.69564 34.6518 9.53809C34.6303 9.73145 34.5766 10.043 34.4906 10.4727C34.4047 10.8988 34.3384 11.2031 34.2919 11.3857L33.2338 15.5H31.3432L29.3397 7.64746H30.9779L31.9823 11.9336C32.1578 12.7249 32.2849 13.4106 32.3637 13.9907C32.3852 13.7866 32.4335 13.4715 32.5087 13.0454C32.5875 12.6157 32.6609 12.2827 32.7289 12.0464L33.8729 7.64746H35.4467L36.5907 12.0464C36.6409 12.2433 36.7035 12.5441 36.7787 12.9487C36.8539 13.3534 36.9112 13.7007 36.9506 13.9907C36.9864 13.7114 37.0437 13.3641 37.1225 12.9487C37.2012 12.5298 37.2729 12.1914 37.3373 11.9336L38.3363 7.64746H39.9745L37.9765 15.5Z" fill="black"/>
</svg>
