<svg width="165" height="31" viewBox="0 0 165 31" fill="none" xmlns="http://www.w3.org/2000/svg">
<mask id="mask0_0_723" style="mask-type:alpha" maskUnits="userSpaceOnUse" x="0" y="0" width="30" height="30">
<path fill-rule="evenodd" clip-rule="evenodd" d="M0 0H29.8426V29.8428H0V0Z" fill="white"/>
</mask>
<g mask="url(#mask0_0_723)">
<path fill-rule="evenodd" clip-rule="evenodd" d="M29.8426 27.1218V2.7208C29.8426 2.4078 29.7886 2.1078 29.6906 1.8278C29.3566 0.9278 28.5106 0.1988 27.5526 0.0348L27.5366 0.0318C27.5326 0.0308 27.5286 0.0308 27.5246 0.0298C27.3926 0.0108 27.2586 -0.0002 27.1216 -0.0002H2.7206C1.2246 -0.0002 -0.000396729 1.2248 -0.000396729 2.7208V27.1218C-0.000396729 27.4338 0.0536033 27.7338 0.152603 28.0148C0.485603 28.9148 1.3316 29.6438 2.2896 29.8078C2.2956 29.8088 2.3006 29.8098 2.3056 29.8098C2.3096 29.8108 2.3136 29.8108 2.3186 29.8118C2.4496 29.8318 2.5846 29.8428 2.7206 29.8428H13.1346L3.2066 17.0608H8.4876L18.4166 29.8428H21.5926L11.6636 17.0608H17.8706C18.9596 17.0608 19.7526 16.8008 20.2976 16.2618C20.8376 15.7258 21.0996 14.9408 21.0996 13.8678C21.0996 12.3048 20.6346 10.7068 17.1786 10.7068H6.7256L3.4646 6.5078H18.0096C20.3046 6.5078 22.1696 7.1868 23.5516 8.5278C24.9406 9.8778 25.6446 11.6968 25.6446 13.9368C25.6446 15.9798 25.0116 17.6708 23.7646 18.9588C22.8646 19.8888 21.6736 20.5448 20.2096 20.9208L26.8736 29.8428H27.1216C28.6176 29.8428 29.8426 28.6178 29.8426 27.1218Z" fill="#F17D21"/>
</g>
<path fill-rule="evenodd" clip-rule="evenodd" d="M55.119 29.842H59.318V5.598H55.119V29.842Z" fill="#59595C"/>
<path fill-rule="evenodd" clip-rule="evenodd" d="M61.8602 13.3366C61.8602 11.9376 62.1542 10.7226 62.7452 9.6936C63.3352 8.6646 64.1232 7.8076 65.1112 7.1206C66.0992 6.4366 67.2312 5.9276 68.5072 5.5986C69.7832 5.2696 71.1072 5.1046 72.4792 5.1046C73.4942 5.1046 74.5172 5.2006 75.5462 5.3926C76.5752 5.5846 77.5562 5.9066 78.4892 6.3586C79.4222 6.8126 80.2732 7.4166 81.0412 8.1706C81.8092 8.9256 82.4542 9.8656 82.9752 10.9896L79.1892 12.7186C78.9142 12.0886 78.5362 11.5536 78.0572 11.1136C77.5762 10.6756 77.0342 10.3176 76.4312 10.0436C75.8272 9.7696 75.1822 9.5696 74.4962 9.4466C73.8102 9.3226 73.1382 9.2616 72.4792 9.2616C71.6012 9.2616 70.7712 9.3506 69.9892 9.5286C69.2072 9.7076 68.5282 9.9756 67.9522 10.3316C67.3762 10.6896 66.9152 11.1136 66.5732 11.6076C66.2292 12.1026 66.0582 12.6786 66.0582 13.3366V21.8986C66.0582 22.6666 66.2642 23.3116 66.6762 23.8326C67.0872 24.3546 67.6082 24.7796 68.2392 25.1086C68.8712 25.4386 69.5632 25.6716 70.3182 25.8086C71.0732 25.9456 71.7932 26.0146 72.4792 26.0146C73.7972 26.0146 75.0862 25.7606 76.3482 25.2526C77.6102 24.7456 78.5982 23.8736 79.3122 22.6396L83.0172 24.3266C82.4412 25.4246 81.7612 26.3506 80.9792 27.1056C80.1972 27.8596 79.3462 28.4636 78.4272 28.9166C77.5072 29.3686 76.5402 29.6916 75.5252 29.8836C74.5102 30.0746 73.4942 30.1716 72.4792 30.1716C70.9982 30.1716 69.6112 29.9926 68.3222 29.6366C67.0322 29.2806 65.9072 28.7516 64.9462 28.0516C63.9862 27.3526 63.2312 26.4866 62.6832 25.4586C62.1332 24.4296 61.8602 23.2426 61.8602 21.8986V13.3366Z" fill="#59595C"/>
<path fill-rule="evenodd" clip-rule="evenodd" d="M88.8607 21.7751C88.8607 22.4611 89.0317 23.0651 89.3757 23.5861C89.7177 24.1071 90.1847 24.5461 90.7757 24.9031C91.3647 25.2591 92.0437 25.5351 92.8127 25.7261C93.5807 25.9191 94.3897 26.0141 95.2407 26.0141C96.0907 26.0141 96.9077 25.9191 97.6897 25.7261C98.4717 25.5351 99.1577 25.2591 99.7477 24.9031C100.338 24.5461 100.812 24.1071 101.168 23.5861C101.525 23.0651 101.704 22.4611 101.704 21.7751V13.4191C101.704 12.7601 101.525 12.1771 101.168 11.6701C100.812 11.1621 100.338 10.7301 99.7477 10.3731C99.1577 10.0161 98.4717 9.7491 97.6897 9.5701C96.9077 9.3921 96.0907 9.3021 95.2407 9.3021C94.3897 9.3021 93.5807 9.3921 92.8127 9.5701C92.0437 9.7491 91.3647 10.0161 90.7757 10.3731C90.1847 10.7301 89.7177 11.1621 89.3757 11.6701C89.0317 12.1771 88.8607 12.7601 88.8607 13.4191V21.7751ZM84.6627 21.7751V13.4191C84.6627 12.0751 84.9377 10.8871 85.4867 9.8581C86.0367 8.8291 86.7857 7.9651 87.7347 7.2651C88.6837 6.5661 89.8037 6.0381 91.0957 5.6801C92.3877 5.3241 93.7767 5.1451 95.2617 5.1451C96.7457 5.1451 98.1417 5.3241 99.4467 5.6801C100.753 6.0381 101.88 6.5661 102.829 7.2651C103.778 7.9651 104.527 8.8291 105.077 9.8581C105.627 10.8871 105.902 12.0751 105.902 13.4191V21.7751C105.902 23.1201 105.627 24.3131 105.077 25.3561C104.527 26.3991 103.778 27.2771 102.829 27.9901C101.88 28.7041 100.753 29.2461 99.4467 29.6161C98.1417 29.9871 96.7457 30.1711 95.2617 30.1711C93.7767 30.1711 92.3877 29.9871 91.0957 29.6161C89.8037 29.2461 88.6837 28.7041 87.7347 27.9901C86.7857 27.2771 86.0367 26.3991 85.4867 25.3561C84.9377 24.3131 84.6627 23.1201 84.6627 21.7751Z" fill="#59595C"/>
<path fill-rule="evenodd" clip-rule="evenodd" d="M160.546 21.6921V19.7981H151.602C150.809 19.7981 150.166 19.8951 149.673 20.0881C149.181 20.2801 148.784 20.5051 148.483 20.7661C148.182 21.0281 147.977 21.3011 147.868 21.5891C147.758 21.8781 147.704 22.1181 147.704 22.3101C147.704 22.9681 147.875 23.5311 148.216 23.9981C148.559 24.4641 149.024 24.8481 149.611 25.1501C150.199 25.4521 150.884 25.6711 151.663 25.8081C152.443 25.9461 153.27 26.0141 154.146 26.0141C155.65 26.0141 156.826 25.8431 157.674 25.5001C158.522 25.1571 159.158 24.7531 159.582 24.2861C160.006 23.8201 160.273 23.3461 160.382 22.8651C160.492 22.3851 160.546 21.9951 160.546 21.6921ZM154.208 5.1451C155.634 5.1451 156.985 5.3101 158.261 5.6391C159.538 5.9681 160.653 6.4691 161.608 7.1421C162.563 7.8141 163.324 8.6591 163.893 9.6731C164.461 10.6891 164.745 11.8961 164.745 13.2961V21.6921C164.745 23.1741 164.49 24.4441 163.981 25.5001C163.473 26.5561 162.751 27.4341 161.817 28.1341C160.881 28.8341 159.761 29.3481 158.456 29.6771C157.149 30.0071 155.713 30.1711 154.146 30.1711C152.661 30.1711 151.272 30.0211 149.98 29.7201C148.688 29.4201 147.561 28.9471 146.598 28.3041C145.636 27.6611 144.88 26.8471 144.33 25.8621C143.78 24.8771 143.505 23.7001 143.505 22.3321C143.505 21.2931 143.704 20.3621 144.102 19.5411C144.5 18.7201 145.049 18.0221 145.749 17.4481C146.448 16.8741 147.293 16.4291 148.28 16.1141C149.268 15.7991 150.365 15.6421 151.573 15.6421H160.546V13.3221C160.546 12.6601 160.381 12.0791 160.052 11.5821C159.723 11.0841 159.27 10.6711 158.694 10.3381C158.118 10.0061 157.445 9.7521 156.677 9.5721C155.908 9.3921 155.085 9.3021 154.208 9.3021C151.463 9.3021 149.487 10.1811 148.28 11.9371L144.658 9.7961C145.618 8.2061 146.908 7.0331 148.527 6.2771C150.146 5.5231 152.039 5.1451 154.208 5.1451Z" fill="#59595C"/>
<path fill-rule="evenodd" clip-rule="evenodd" d="M141.604 20.1071V13.4191C141.604 12.0751 141.37 10.8811 140.904 9.8371C140.437 8.7951 139.786 7.9301 138.949 7.2451C138.111 6.5591 137.118 6.0381 135.965 5.6801C134.812 5.3241 133.563 5.1451 132.219 5.1451C130.682 5.1451 129.262 5.3241 127.959 5.6801C126.655 6.0381 125.605 6.6411 124.81 7.4921C124.014 6.6411 122.992 6.0381 121.743 5.6801C120.494 5.3241 119.074 5.1451 117.483 5.1451C116.193 5.1451 114.979 5.3101 113.84 5.6391C112.702 5.9681 111.707 6.4761 110.856 7.1631C110.005 7.8481 109.326 8.7061 108.819 9.7351C108.311 10.7641 108.057 11.9921 108.057 13.4191V29.8421H112.256V13.4191C112.256 12.7331 112.4 12.1291 112.687 11.6081C112.976 11.0861 113.353 10.6551 113.82 10.3111C114.286 9.9681 114.834 9.7141 115.466 9.5491C116.097 9.3851 116.77 9.3021 117.483 9.3021C119.047 9.3021 120.316 9.6601 121.291 10.3731C122.264 11.0861 122.752 12.1021 122.752 13.4191V29.8421H126.95V13.4191C126.95 12.7331 127.094 12.1291 127.381 11.6081C127.667 11.0861 128.05 10.6551 128.528 10.3111C129.007 9.9681 129.567 9.7141 130.21 9.5491C130.852 9.3851 131.528 9.3021 132.239 9.3021C133.743 9.3021 134.979 9.6601 135.95 10.3731C136.919 11.0861 137.405 12.1021 137.405 13.4191V24.3051H137.406V26.8131C137.406 28.6681 138.909 30.1711 140.764 30.1711H141.604V20.1071Z" fill="#59595C"/>
<path fill-rule="evenodd" clip-rule="evenodd" d="M48.1595 5.7429C44.9755 5.7429 42.4865 6.4479 40.6895 7.8599C38.8915 9.2709 37.9925 11.2409 37.9925 13.7679V24.4719V30.1719H38.8325C40.6875 30.1719 42.1915 28.6679 42.1915 26.8129V20.1069V13.7679C42.1915 12.5319 42.7325 11.5639 43.8175 10.8649C44.9005 10.1659 46.3485 9.8159 48.1595 9.8159H53.7165V5.7429H48.1595Z" fill="#59595C"/>
<path fill-rule="evenodd" clip-rule="evenodd" d="M55.5995 -0.0003H58.7965C59.0845 -0.0003 59.3175 0.2327 59.3175 0.5207V2.7307C59.3175 3.0187 59.0845 3.2517 58.7965 3.2517H55.5995C55.3115 3.2517 55.0785 3.0187 55.0785 2.7307V0.5207C55.0785 0.2327 55.3115 -0.0003 55.5995 -0.0003Z" fill="#F17D21"/>
</svg>
