<svg width="110" height="31" viewBox="0 0 110 31" fill="none" xmlns="http://www.w3.org/2000/svg">
<path fill-rule="evenodd" clip-rule="evenodd" d="M7.70924 12.6514C9.23724 12.6514 10.6762 12.7234 12.1042 12.6324C14.1032 12.5094 15.3872 11.2774 15.4862 9.5594C15.5882 7.7994 14.5882 6.5714 12.5102 6.2584C10.9502 6.0264 9.34624 6.0704 7.70924 5.9934V12.6514ZM24.6382 29.7964H16.5102C15.8422 27.7464 15.2002 25.7144 14.5092 23.7024C14.1462 22.6434 13.7332 21.5944 13.2812 20.5724C12.5822 19.0054 11.3892 18.1794 9.61724 18.2674C9.01224 18.2974 8.40124 18.2694 7.70924 18.2694V29.7374H0.000244141V0.5174C1.35724 0.5174 2.72724 0.5074 4.10824 0.5174C7.60024 0.5494 11.0942 0.5794 14.5952 0.6094C16.5132 0.6334 18.3622 0.9814 20.0442 1.9634C21.6782 2.9154 22.7132 4.3134 23.0592 6.1884C23.3612 7.8134 23.3052 9.4384 22.7762 11.0104C22.0962 13.0414 20.7032 14.3884 18.6592 15.0544C18.4412 15.1284 18.2192 15.1934 17.7962 15.3264C19.6252 16.0364 20.1832 17.5244 20.7262 19.0614C21.9912 22.6224 23.3082 26.1624 24.6382 29.7964Z" fill="#E9ECF0"/>
<path fill-rule="evenodd" clip-rule="evenodd" d="M82.5053 29.7027H74.8303V17.3477H65.5653V29.7447H57.8533V0.5887H65.5633V11.6527H74.7953V0.6417H82.5053V29.7027Z" fill="#E9ECF0"/>
<path fill-rule="evenodd" clip-rule="evenodd" d="M88.9116 22.8189C90.6806 23.3229 92.3776 23.8849 94.1136 24.2579C95.9476 24.6629 97.8256 24.6859 99.6596 24.1869C100.482 23.9619 101.206 23.5779 101.568 22.7309C102.149 21.4079 101.91 20.2469 100.64 19.5579C99.2446 18.8009 97.7346 18.2439 96.2476 17.6659C95.4046 17.3339 94.5046 17.1589 93.6516 16.8599C90.1766 15.6269 88.1246 13.0339 87.9916 9.7489C87.8456 5.8789 89.5946 2.9849 93.0506 1.4359C96.1316 0.0539 99.4016 -0.1631 102.701 0.0939C104.368 0.2289 106.021 0.6159 107.665 0.9369C107.881 0.9809 108.211 1.3199 108.203 1.5079C108.097 3.3419 107.928 5.1669 107.788 6.9219C106.133 6.5569 104.538 6.1089 102.91 5.8769C101.079 5.6219 99.2236 5.6379 97.4736 6.3879C96.5886 6.7659 96.0586 7.4439 95.9936 8.4049C95.9276 9.3309 96.4286 9.9789 97.1946 10.4249C97.6006 10.6689 98.0346 10.9049 98.4846 11.0539C99.7506 11.4629 101.051 11.7869 102.305 12.2149C103.493 12.6159 104.702 12.9899 105.806 13.5699C108.596 15.0349 109.895 17.4329 109.87 20.5719C109.833 25.1149 107.8 28.0329 103.685 29.3449C102.622 29.6819 101.517 29.9349 100.415 30.0949C96.5796 30.6469 92.8086 30.2109 89.0646 29.3219C88.4286 29.1729 88.2026 28.9389 88.3036 28.2399C88.5576 26.4149 88.7236 24.5809 88.9116 22.8189Z" fill="#E9ECF0"/>
<path fill-rule="evenodd" clip-rule="evenodd" d="M35.1371 18.8384C35.3781 20.0224 35.4901 21.0904 35.8261 22.0864C36.4571 23.9224 38.0691 24.9644 40.0961 25.0114C42.1481 25.0574 43.7361 24.1194 44.4601 22.2624C45.3251 20.0434 45.3721 17.7564 44.4831 15.5354C43.7711 13.7334 42.3481 12.7884 40.3831 12.7304C38.3721 12.6744 36.8181 13.5154 36.0311 15.3794C35.5621 16.4804 35.4101 17.7214 35.1371 18.8384ZM40.1301 30.3644C37.9571 30.3584 35.8701 29.9564 33.8931 29.1044C29.0571 27.0104 27.1781 22.5274 27.5971 17.7494C28.0841 12.2014 31.5271 8.7284 37.2311 7.6864C40.1421 7.1544 42.9771 7.3654 45.7411 8.3664C49.7211 9.8104 52.1721 12.5674 52.7321 16.8284C53.2261 20.6304 52.5411 24.1384 49.6981 26.9364C47.7821 28.8204 45.3661 29.7124 42.7561 30.1164C41.8901 30.2484 41.0081 30.2834 40.1301 30.3644Z" fill="#E9ECF0"/>
</svg>
