<svg width="59" height="58" viewBox="0 0 59 58" fill="none" xmlns="http://www.w3.org/2000/svg">
<path fill-rule="evenodd" clip-rule="evenodd" d="M37.2698 18.1061C36.3078 19.0261 35.3428 19.9431 34.3788 20.8601C33.5198 21.6751 32.6628 22.4891 31.8008 23.3021C30.9608 24.0991 30.1188 24.8981 29.2718 25.6921C28.6938 26.2361 28.1108 26.7771 27.5018 27.3431C25.8468 26.1371 24.2768 24.8501 22.5998 23.6221C22.5838 23.7681 22.5658 23.8521 22.5658 23.9391C22.5628 26.1351 22.5658 28.3341 22.5578 30.5321C22.5578 30.7591 22.6358 30.9141 22.8068 31.0571C23.1068 31.3001 23.3938 31.5611 23.6798 31.8201C24.4878 32.5541 25.2928 33.2921 26.0988 34.0271C26.5288 34.4161 26.9628 34.8001 27.3978 35.1851C27.4798 35.2581 27.5778 35.3171 27.7008 35.4061C28.5738 34.5141 29.4278 33.6371 30.2868 32.7671C31.1448 31.9011 32.0058 31.0431 32.8668 30.1821C33.7368 29.3091 34.6028 28.4401 35.4718 27.5681C36.3308 26.7041 37.1828 25.8351 38.0468 24.9741C38.9108 24.1131 39.7178 23.1931 40.6528 22.3711C43.2568 27.9191 41.9538 36.0401 35.2588 40.3841C28.2818 44.9111 19.4148 42.7041 15.1338 36.1271C10.6438 29.2221 12.7538 20.3321 19.2938 16.0281C26.0098 11.6081 33.7838 13.7981 37.5258 17.8421C37.4408 17.9291 37.3598 18.0211 37.2698 18.1061Z" fill="#E9ECF0"/>
<mask id="mask0_0_665" style="mask-type:alpha" maskUnits="userSpaceOnUse" x="0" y="1" width="56" height="42">
<path fill-rule="evenodd" clip-rule="evenodd" d="M0 1.00022H55.051V42.2098H0V1.00022Z" fill="white"/>
</mask>
<g mask="url(#mask0_0_665)">
<path fill-rule="evenodd" clip-rule="evenodd" d="M32.7641 5.8718C33.0771 4.7668 33.3811 3.7018 33.6891 2.6078C33.5661 2.5678 33.4591 2.5288 33.3531 2.5008C33.2691 2.4778 33.1791 2.4648 33.0611 2.4418C32.7551 3.5278 32.4521 4.5958 32.1441 5.6928C32.3601 5.7538 32.5501 5.8098 32.7641 5.8718ZM36.0311 7.0278C36.4241 5.9478 36.8081 4.8988 37.2011 3.8188C36.9761 3.7408 36.7901 3.6758 36.5861 3.6058C36.1941 4.6828 35.8151 5.7238 35.4251 6.7918C35.6271 6.8708 35.8121 6.9428 36.0311 7.0278ZM45.2131 8.5308C44.4161 9.3438 43.6251 10.1488 42.8701 10.9168C43.0201 11.0998 43.1491 11.2538 43.2941 11.4338C44.1051 10.6058 44.8881 9.8068 45.7151 8.9648C45.5381 8.8108 45.3871 8.6788 45.2131 8.5308ZM32.3941 2.4278C31.6421 2.3248 30.9241 2.2238 30.1721 2.1198C30.1451 2.3218 30.1171 2.5038 30.0881 2.7058C30.3631 2.7528 30.5931 2.7928 30.8681 2.8398C30.7471 3.7658 30.6261 4.6718 30.5031 5.6058C30.7341 5.6368 30.9301 5.6618 31.1341 5.6868C31.2991 4.7498 31.3591 3.8328 31.5381 2.9408C31.8131 2.9608 32.0461 2.9808 32.2981 2.9998C32.3321 2.8068 32.3601 2.6438 32.3941 2.4278ZM15.0061 9.0388C14.4951 8.2498 13.9991 7.4848 13.5001 6.7078C13.7331 6.5448 13.9411 6.4018 14.1571 6.2508C14.0281 6.0628 13.9201 5.9088 13.8111 5.7458C13.1601 6.1718 12.5521 6.5758 11.9291 6.9848C12.0591 7.1758 12.1621 7.3328 12.2691 7.4928C12.5041 7.3448 12.7011 7.2178 12.9341 7.0718C13.4521 7.8578 13.9541 8.6208 14.4701 9.4058C14.6531 9.2818 14.8161 9.1698 15.0061 9.0388ZM44.6741 8.1938C44.0661 7.7168 43.4931 7.2708 42.9031 6.8088C42.7671 6.9768 42.6531 7.1258 42.5271 7.2858C42.7401 7.4648 42.9331 7.6278 43.1351 7.7988C42.5521 8.5478 41.9931 9.2628 41.4241 9.9948C41.6091 10.1378 41.7661 10.2578 41.9341 10.3868C42.5541 9.6658 43.0701 8.9068 43.6841 8.2198C43.9091 8.3848 44.1001 8.5218 44.3101 8.6768C44.4331 8.5108 44.5401 8.3708 44.6741 8.1938ZM34.5761 4.5398C34.6401 4.2308 34.6851 3.9558 34.8301 3.7038C35.1841 3.7998 35.5211 3.8888 35.8711 3.9818C35.9271 3.7908 35.9781 3.6278 36.0361 3.4318C35.4621 3.2718 34.9121 3.1178 34.3281 2.9528C34.0171 4.0548 33.7141 5.1288 33.4061 6.2278C33.6331 6.2948 33.8131 6.3488 34.0211 6.4108C34.1521 5.9618 34.2751 5.5438 34.4021 5.1178C34.7551 5.2098 35.0691 5.2908 35.4001 5.3778C35.4531 5.1798 35.4951 5.0188 35.5461 4.8368C35.2141 4.7358 34.9141 4.6428 34.5761 4.5398ZM7.6501 11.0318C8.2701 11.2708 8.8721 11.5058 9.4781 11.7298C9.7191 11.8198 9.9271 11.9438 10.1011 12.1318C10.2911 12.3418 10.4911 12.5438 10.6821 12.7428C10.8611 12.5748 11.0151 12.4318 11.1831 12.2748C10.9701 12.0478 10.7801 11.8368 10.5801 11.6408C10.4291 11.4948 10.3231 11.3318 10.2491 11.1328C10.0361 10.5468 9.8071 9.9668 9.5821 9.3828C9.5541 9.3158 9.5181 9.2538 9.5061 9.2318C9.3411 9.3668 9.1841 9.4958 9.0301 9.6188C9.2451 10.1258 9.4481 10.6008 9.6501 11.0738C9.6351 11.0878 9.6181 11.1018 9.6021 11.1168C9.1191 10.9058 8.6371 10.6958 8.1461 10.4798C7.9751 10.6698 7.8241 10.8358 7.6501 11.0318ZM23.9181 4.5678C23.8961 4.6378 23.8791 4.6908 23.8661 4.7448C23.8011 4.9518 23.6441 5.0608 23.4451 5.0948C23.2371 5.1348 23.0971 5.0108 22.9931 4.8508C22.9311 4.7558 22.8781 4.6518 22.8471 4.5448C22.7301 4.1468 22.7271 3.7378 22.7721 3.3288C22.7831 3.2188 22.8301 3.1068 22.8891 3.0118C23.0551 2.7368 23.3891 2.7078 23.6081 2.9468C23.6741 3.0198 23.7281 3.1068 23.7891 3.1878C24.0001 3.1768 24.2041 3.2158 24.3961 3.0958C24.3541 2.7198 24.1821 2.4358 23.8511 2.2768C23.2011 1.9648 22.3731 2.3248 22.1741 3.0228C21.9901 3.6728 22.0321 4.3348 22.2811 4.9598C22.4381 5.3558 22.7301 5.6448 23.1871 5.6978C23.5121 5.7348 23.8241 5.6698 24.1071 5.5098C24.4621 5.3088 24.6151 4.9048 24.4831 4.5008C24.3001 4.5228 24.1121 4.5448 23.9181 4.5678ZM39.4971 5.9308C39.6791 5.5328 39.7101 5.1648 39.4611 4.8568C39.0761 4.3828 38.2941 4.1388 37.7281 4.6098C37.1891 5.0588 36.8951 5.6478 36.7691 6.3238C36.5731 7.3668 37.4361 7.8888 38.2411 7.7618C38.5801 7.7088 38.7881 7.4818 38.9391 7.1568C38.7241 7.0588 38.5331 6.9718 38.3481 6.8898C38.2751 6.9518 38.2181 6.9908 38.1671 7.0388C37.8991 7.2938 37.5201 7.1028 37.4391 6.8088C37.4081 6.6938 37.4051 6.5588 37.4251 6.4408C37.4901 6.0648 37.6601 5.7288 37.8821 5.4228C37.9801 5.2888 38.1011 5.1598 38.2391 5.0668C38.5501 4.8508 38.9221 5.0448 38.9511 5.4258C38.9551 5.4988 38.9451 5.5778 38.9391 5.6558C39.1241 5.7478 39.2981 5.8328 39.4971 5.9308ZM24.7461 2.0408C24.8111 3.1998 24.8691 4.3038 24.9311 5.4428C25.5681 5.4068 26.1701 5.3728 26.8131 5.3358C26.8011 5.1058 26.7901 4.9208 26.7821 4.7558H25.5261V3.9738C25.8871 3.9478 26.2551 3.9258 26.6561 3.8998C26.6441 3.6958 26.6331 3.5248 26.6241 3.3558H25.4611V2.6048C25.8511 2.5708 26.2411 2.5398 26.6531 2.5068C26.6241 2.2958 26.6031 2.1338 26.5771 1.9458C25.9601 1.9788 25.3821 2.0068 24.7461 2.0408ZM15.9741 8.3758C16.5321 8.0288 17.0731 7.7258 17.5971 7.3638C17.4741 7.1788 17.3751 7.0298 17.2671 6.8618C16.8961 7.0828 16.5511 7.2888 16.1871 7.5068C16.0371 7.2658 15.9101 7.0558 15.7691 6.8258C16.1111 6.6038 16.4311 6.3958 16.7561 6.1858C16.6471 6.0118 16.5541 5.8718 16.4481 5.7058C16.1111 5.9088 15.7941 6.0988 15.4521 6.3068C15.3061 6.0768 15.1771 5.8718 15.0391 5.6498C15.4101 5.4118 15.7411 5.2018 16.0771 4.9858C15.9591 4.8038 15.8651 4.6548 15.7571 4.4918C15.2191 4.8288 14.7011 5.1478 14.1731 5.4758C14.7791 6.4498 15.3651 7.3978 15.9741 8.3758ZM7.8941 14.4118C8.2941 14.7308 8.7321 14.7788 9.0611 14.5378C9.3581 14.3218 9.5481 14.0298 9.6321 13.6738C9.7341 13.2338 9.5791 12.9058 9.1451 12.6078C8.7971 12.3668 8.4121 12.3648 8.0651 12.6028C7.9221 12.6978 7.7871 12.8018 7.6441 12.8938C7.5491 12.9538 7.4481 13.0098 7.3381 13.0398C7.1811 13.0848 7.0491 13.0258 6.9571 12.8858C6.8681 12.7478 6.8681 12.6078 6.9601 12.4738C7.0521 12.3388 7.1731 12.2668 7.3381 12.3168C7.4111 12.3388 7.4821 12.3668 7.5691 12.3978C7.6891 12.2218 7.8011 12.0588 7.9161 11.8928C7.4341 11.5428 7.0161 11.5738 6.6621 11.9798C6.5531 12.1058 6.4551 12.2488 6.3851 12.4008C6.2341 12.7348 6.2501 13.0798 6.4801 13.3688C6.7241 13.6738 7.0521 13.8708 7.4641 13.7748C7.6471 13.7328 7.8151 13.6228 7.9841 13.5278C8.1411 13.4408 8.2811 13.3178 8.4411 13.2338C8.6651 13.1158 8.8531 13.1718 8.9711 13.3628C9.0691 13.5168 9.0461 13.6658 8.9621 13.8108C8.8751 13.9658 8.7381 14.0408 8.5641 14.0218C8.4541 14.0108 8.3511 13.9718 8.2221 13.9378C8.1101 14.1008 8.0031 14.2548 7.8941 14.4118ZM12.0471 8.2358C11.8821 7.8918 11.6071 7.7338 11.2761 7.7568C10.9401 7.7818 10.6701 7.9448 10.4461 8.1798C10.1571 8.4828 10.1041 8.9598 10.3001 9.3188C10.5331 9.7418 10.8351 9.9018 11.3101 9.8288C11.4901 9.8038 11.6631 9.7448 11.8421 9.7168C11.9861 9.6918 12.1371 9.6658 12.2781 9.6838C12.5101 9.7138 12.6501 10.0088 12.5491 10.2098C12.4071 10.4908 12.0831 10.5668 11.8341 10.3788C11.7841 10.3398 11.7361 10.2918 11.6801 10.2438C11.5031 10.3728 11.3431 10.4878 11.1811 10.6028C11.5001 11.0878 11.9521 11.2478 12.4321 11.0348C12.6031 10.9558 12.7571 10.8298 12.9001 10.7038C13.3931 10.2608 13.3061 9.6528 12.9191 9.2238C12.7231 9.0048 12.4821 8.8928 12.1931 8.9288C12.0021 8.9538 11.8171 9.0098 11.6261 9.0468C11.4611 9.0748 11.2931 9.1138 11.1271 9.1108C10.9731 9.1078 10.8411 8.9488 10.8191 8.7908C10.7961 8.6428 10.8561 8.5218 10.9821 8.4438C11.1161 8.3618 11.2591 8.3338 11.3941 8.4468C11.4451 8.4888 11.4941 8.5338 11.5621 8.5918C11.7311 8.4688 11.8931 8.3508 12.0471 8.2358ZM39.1501 8.5218C39.3381 8.3648 39.5081 8.2198 39.6971 8.0618C40.0021 8.2698 40.2991 8.4718 40.5911 8.6708C40.5151 8.9118 40.4531 9.1168 40.3861 9.3408C40.5851 9.4758 40.7671 9.5988 40.9841 9.7448C41.3371 8.5948 41.6821 7.4818 42.0331 6.3458C41.8001 6.1858 41.5761 6.0378 41.3401 5.8778C40.4311 6.6378 39.5361 7.3838 38.6141 8.1548C38.8101 8.2888 38.9761 8.4018 39.1501 8.5218ZM28.1061 4.0768C28.6581 4.0298 28.7681 4.1188 28.8041 4.6008C28.8091 4.6688 28.8121 4.7358 28.8211 4.8038C28.8431 5.0028 28.8661 5.2018 28.8911 5.4118H29.5491C29.5221 5.1318 29.4851 4.8728 29.4741 4.6158C29.4541 4.2308 29.4351 3.8528 28.9301 3.7408C29.3651 3.5248 29.4381 3.4548 29.5221 3.2158C29.7411 2.5818 29.4511 2.0998 28.7951 1.9988C28.7401 1.9908 28.6811 1.9908 28.6241 1.9878C28.3301 1.9818 28.0331 1.9758 27.7381 1.9758C27.6651 1.9758 27.5891 1.9988 27.4991 2.0128C27.5081 3.1378 27.3871 4.2428 27.4351 5.3588H28.0211C28.0491 4.9238 28.0771 4.5058 28.1061 4.0768ZM45.4461 13.1048C45.8671 13.1078 46.2141 12.9218 46.5341 12.6728C46.9591 12.3388 47.3351 11.9628 47.4701 11.4108C47.6781 10.5498 46.8721 9.7758 46.0821 9.9548C45.2521 10.1458 44.6801 10.6728 44.3491 11.4158C43.9881 12.2328 44.5871 13.1078 45.4461 13.1048ZM47.7231 14.9978L47.6721 14.9468C48.1601 14.2378 48.6511 13.5308 49.1481 12.8098C48.9491 12.5468 48.7601 12.2938 48.5591 12.0218C47.6391 12.7118 46.7391 13.3818 45.8211 14.0668C45.9451 14.2318 46.0511 14.3748 46.1601 14.5208C46.5201 14.2518 46.8511 13.9938 47.1961 13.7498C47.5271 13.5168 47.8271 13.2308 48.2191 13.0848C47.7171 13.8108 47.2121 14.5378 46.7101 15.2638C46.9071 15.5248 47.0831 15.7608 47.2771 16.0208C48.1971 15.3308 49.1031 14.6528 50.0201 13.9688C49.8911 13.8058 49.7891 13.6738 49.6811 13.5368C49.0131 14.0358 48.3681 14.5158 47.7231 14.9978ZM17.5801 4.5568C17.6031 4.5448 17.6251 4.5338 17.6481 4.5198C18.1691 5.2828 18.6911 6.0458 19.2241 6.8288C19.4141 6.7418 19.5851 6.6628 19.7591 6.5808C19.6221 5.6588 19.4111 4.7728 19.2831 3.8778C19.3081 3.8698 19.3331 3.8638 19.3591 3.8578C19.6981 4.6828 20.0391 5.5048 20.3881 6.3488C20.5891 6.2558 20.7491 6.1838 20.9291 6.1018C20.4971 5.0498 20.0761 4.0238 19.6421 2.9638C19.2971 3.1068 18.9861 3.2358 18.6601 3.3708C18.7421 3.7598 18.8231 4.1138 18.8871 4.4698C18.9501 4.8228 19.0781 5.1678 19.0221 5.5498C18.6201 4.9468 18.2201 4.3438 17.8021 3.7148C17.4651 3.8558 17.1491 3.9898 16.8371 4.1188C17.0481 4.8178 18.0061 7.0748 18.1721 7.2598C18.3131 7.1988 18.4521 7.1338 18.6011 7.0698C18.2501 6.2078 17.9171 5.3838 17.5801 4.5568ZM5.2431 27.6068H0.0220977C-0.0179023 27.3038 0.00209774 26.9978 0.0350977 26.7008C0.151098 25.6968 0.248098 24.6868 0.420098 23.6918C0.575098 22.7968 0.779098 21.9078 1.0231 21.0328C1.5441 19.1628 2.2741 17.3728 3.1821 15.6568C3.9311 14.2458 4.7921 12.9058 5.7771 11.6518C7.2631 9.7508 8.9651 8.0618 10.8921 6.6068C12.0831 5.7038 13.3281 4.8878 14.6531 4.1948C16.8091 3.0678 19.0731 2.2118 21.4531 1.6818C23.0211 1.3308 24.6091 1.1068 26.2121 1.0318C27.4521 0.9698 28.6921 1.0008 29.9321 1.1098C31.3861 1.2358 32.8201 1.4768 34.2341 1.8278C35.7281 2.1978 37.1781 2.7028 38.5891 3.3198C40.3021 4.0718 41.9231 4.9938 43.4491 6.0768C45.5491 7.5688 47.4071 9.3218 49.0211 11.3298C50.2191 12.8158 51.2501 14.4088 52.1121 16.1078C53.2451 18.3438 54.0641 20.6878 54.5511 23.1478C54.8071 24.4348 54.9981 25.7278 55.0321 27.0378C55.0621 28.2098 55.0481 29.3818 55.0451 30.5538C55.0371 33.6388 55.0261 36.7238 55.0121 39.8088C55.0091 40.5268 54.9891 41.2448 54.9751 41.9598C54.9751 42.0388 54.9611 42.1138 54.9511 42.2098H49.7281C49.7201 42.0858 49.7081 41.9768 49.7081 41.8648C49.7081 40.2018 49.7081 38.5408 49.7111 36.8778C49.7221 33.5778 49.7641 30.2738 49.7361 26.9728C49.7281 26.0918 49.5631 25.2088 49.4061 24.3368C49.0331 22.2618 48.3341 20.2928 47.3781 18.4158C46.5031 16.6918 45.4171 15.1068 44.1241 13.6708C42.7851 12.1848 41.2761 10.8918 39.5871 9.8118C37.2991 8.3488 34.8301 7.3298 32.1771 6.7638C31.1651 6.5478 30.1421 6.3928 29.1071 6.3428C28.5041 6.3118 27.9011 6.2818 27.2971 6.2838C25.4101 6.2898 23.5571 6.5478 21.7341 7.0388C19.3721 7.6728 17.1761 8.6708 15.1461 10.0278C12.9761 11.4808 11.1161 13.2528 9.5711 15.3598C8.2001 17.2248 7.1421 19.2578 6.4051 21.4508C5.7651 23.3498 5.4011 25.3018 5.2851 27.3008C5.2801 27.3908 5.2601 27.4778 5.2431 27.6068Z" fill="#E9ECF0"/>
</g>
<path fill-rule="evenodd" clip-rule="evenodd" d="M38.9311 55.3191H44.3911C44.1031 55.2321 43.8441 55.1761 43.6061 55.0781C42.8371 54.7671 42.3641 54.1831 42.1171 53.4031C41.9771 52.9551 41.9171 52.4921 41.9151 52.0241C41.9091 51.0451 41.9091 50.0661 41.9151 49.0851C41.9201 48.5861 41.9621 48.0841 42.1221 47.6041C42.3921 46.8071 42.9421 46.2721 43.7381 46.0141C44.6631 45.7161 45.6031 45.6861 46.5141 46.0421C47.4731 46.4181 47.9901 47.1501 48.0711 48.1761C48.0871 48.4011 48.0731 48.6281 48.0731 48.8941C47.4481 48.9141 46.8511 48.9141 46.2201 48.8911C46.2111 48.7481 46.2051 48.6281 46.1971 48.5101C46.1831 48.3271 46.1861 48.1421 46.1501 47.9651C46.0631 47.5281 45.8641 47.3321 45.4171 47.2811C45.1511 47.2541 44.8731 47.2481 44.6071 47.2841C44.2681 47.3321 44.0271 47.5451 43.9371 47.8841C43.8781 48.1031 43.8301 48.3301 43.8271 48.5551C43.8191 49.9321 43.8191 51.3091 43.8271 52.6861C43.8271 52.9131 43.8671 53.1401 43.9041 53.3641C43.9621 53.7231 44.1861 53.9701 44.5201 54.0741C45.0701 54.2511 45.6191 54.2451 46.1351 53.9371C46.2561 53.8631 46.3521 53.7771 46.3521 53.6141C46.3431 53.0331 46.3401 52.4531 46.3371 51.8721C46.3341 51.8531 46.3181 51.8361 46.2791 51.7661H45.1431V50.2851H48.0181C48.0931 50.5371 48.1191 54.2361 48.0511 54.8221C47.3751 55.0521 46.6651 55.1841 45.9511 55.3191H50.7511C50.5101 55.2491 50.3231 55.1981 50.1401 55.1371C49.5481 54.9381 49.1641 54.5451 48.9981 53.9311C48.8531 53.3921 48.8681 52.8541 48.8861 52.3181C49.1451 52.2371 50.3501 52.2171 50.8471 52.2851C50.8531 52.4051 50.8591 52.5371 50.8691 52.6691C50.8891 52.9271 50.8921 53.1911 50.9431 53.4451C50.9681 53.5801 51.0601 53.7201 51.1631 53.8131C51.4391 54.0631 52.0381 54.0991 52.3591 53.9141C52.5611 53.7961 52.6841 53.6191 52.6961 53.3901C52.7091 53.0951 52.7091 52.7981 52.6841 52.5041C52.6641 52.2561 52.5271 52.0491 52.3201 51.9121C52.0161 51.7101 51.7131 51.5101 51.3941 51.3341C51.0661 51.1521 50.7261 50.9921 50.3841 50.8351C49.6471 50.4951 49.2371 49.9031 49.1361 49.1241C49.0751 48.6331 49.0851 48.1261 49.1171 47.6261C49.1571 47.0151 49.4951 46.5471 50.0171 46.2551C51.0971 45.6491 52.2301 45.5931 53.3631 46.0921C54.0861 46.4091 54.4281 47.0211 54.4791 47.7951C54.4931 47.9861 54.4821 48.1791 54.4821 48.3591C54.2061 48.4401 53.0061 48.4541 52.5971 48.3861C52.5881 48.3081 52.5721 48.2211 52.5661 48.1341C52.5581 47.9771 52.5691 47.8141 52.5491 47.6571C52.5071 47.3261 52.3171 47.1551 51.9861 47.1301C51.9051 47.1241 51.8261 47.1241 51.7441 47.1331C51.3941 47.1611 51.1691 47.3601 51.1411 47.7131C51.1191 48.0271 51.1141 48.3501 51.1501 48.6671C51.1691 48.8351 51.2591 49.0171 51.3661 49.1521C51.5061 49.3261 51.6831 49.4801 51.8681 49.6091C52.4601 50.0321 53.0541 50.4531 53.6621 50.8521C54.1511 51.1711 54.4061 51.6111 54.4281 52.1841C54.4461 52.6271 54.4701 53.0721 54.4251 53.5101C54.3301 54.4391 53.7781 55.0131 52.8611 55.2011C52.6841 55.2381 52.5011 55.2631 52.3251 55.3141H54.6381C54.7961 55.0331 54.7341 54.7471 54.7341 54.4661C54.7341 54.1381 54.7341 53.8101 54.7311 53.4821C54.7261 52.9021 54.7171 52.3241 54.7121 51.7431C54.7091 51.5271 54.6981 51.3121 54.7011 51.0951C54.7021 49.9011 54.7061 48.7091 54.7141 47.5141C54.7141 47.3201 54.7401 47.1301 54.7401 46.9371C54.7431 46.0951 54.7431 45.2511 54.7431 44.4101C54.7431 44.2861 54.7531 44.1661 54.7621 44.0201H55.1131C55.2471 44.2081 55.2221 44.4151 55.2221 44.6171V54.8311V55.3141C56.3221 55.3561 57.3871 55.3111 58.4721 55.3411C58.4811 55.4511 58.4901 55.5351 58.5001 55.6551C58.3431 55.6671 58.2121 55.6811 58.0791 55.6811C57.2841 55.6841 56.4871 55.6811 55.6901 55.6841C55.5561 55.6841 55.4241 55.7001 55.2761 55.7091C55.1261 56.2811 55.3311 56.8641 55.1381 57.4171H54.7481C54.7451 57.1251 54.7501 56.8561 54.7401 56.5871C54.7281 56.3201 54.7991 56.0401 54.6441 55.7401C54.4761 55.7201 54.2881 55.6871 54.1001 55.6841C50.7511 55.6811 47.4041 55.6841 44.0571 55.6841H31.2121H30.8031C30.7951 55.5661 30.7861 55.4761 30.7781 55.3411H37.2451C37.2451 55.3271 37.2481 55.3111 37.2481 55.2941C37.1531 55.2661 37.0541 55.2381 36.9561 55.2151C36.1431 55.0221 35.6381 54.5311 35.5121 53.6901C35.4421 53.2301 35.4161 52.7671 35.4481 52.2591C36.1071 52.2451 36.7381 52.2401 37.4001 52.2651C37.4081 52.4081 37.4131 52.5281 37.4221 52.6491C37.4391 52.8761 37.4421 53.1061 37.4731 53.3281C37.5321 53.7261 37.7111 53.9031 38.1031 53.9871C38.1701 54.0011 38.2391 54.0121 38.3051 54.0181C38.9481 54.0741 39.2671 53.7881 39.2921 53.1401C39.2981 53.0281 39.2951 52.9131 39.2891 52.8001C39.2701 52.3631 39.1141 52.0011 38.7091 51.7821C38.1521 51.4801 37.5871 51.1881 37.0331 50.8741C36.7681 50.7221 36.4881 50.5711 36.2781 50.3581C35.9051 49.9771 35.6921 49.4941 35.6721 48.9471C35.6581 48.5861 35.6661 48.2211 35.6631 47.8561C35.6581 47.1551 35.9691 46.6001 36.5581 46.2691C37.7051 45.6271 38.9001 45.5651 40.0831 46.1791C40.5931 46.4451 40.9131 46.8921 40.9941 47.4691C41.0371 47.7671 41.0031 48.0721 41.0031 48.4011H39.1631C39.1581 48.2661 39.1551 48.1421 39.1441 48.0251C39.1291 47.8651 39.1291 47.7021 39.0881 47.5501C39.0271 47.3121 38.8661 47.1581 38.6051 47.1381C38.5161 47.1301 38.4231 47.1241 38.3331 47.1301C37.9471 47.1521 37.7191 47.3571 37.6911 47.7471C37.6711 48.0421 37.6711 48.3391 37.6941 48.6331C37.7191 48.9891 37.9381 49.2421 38.2131 49.4411C38.7651 49.8391 39.3281 50.2291 39.8871 50.6191C40.0161 50.7111 40.1451 50.8041 40.2771 50.8941C40.6801 51.1631 40.9421 51.5301 40.9691 52.0121C41.0031 52.5461 41.0421 53.0871 40.9751 53.6111C40.8611 54.4971 40.2991 55.0271 39.4241 55.2041C39.2591 55.2381 39.0901 55.2631 38.9221 55.2941C38.9251 55.3021 38.9281 55.3111 38.9311 55.3191Z" fill="#E9ECF0"/>
<path fill-rule="evenodd" clip-rule="evenodd" d="M3.435 38.2688C3.558 38.2488 3.685 38.2378 3.802 38.2048C4.451 38.0218 5.062 37.7528 5.654 37.4338C5.802 37.3518 5.948 37.2628 6.088 37.1638C6.379 36.9588 6.472 36.6538 6.366 36.2948C6.262 35.9468 5.993 35.7228 5.648 35.7258C5.491 35.7258 5.323 35.7338 5.179 35.7958C4.512 36.0758 3.845 36.3708 3.188 36.6758C3.048 36.7408 2.927 36.8638 2.83 36.9848C2.616 37.2428 2.633 37.5318 2.773 37.8178C2.905 38.0928 3.093 38.2908 3.435 38.2688ZM2.067 37.2758C2.039 36.9368 2.173 36.6618 2.414 36.4268C2.644 36.2018 2.9 36.0228 3.2 35.8958C3.69 35.6888 4.17 35.4558 4.661 35.2488C4.848 35.1668 5.047 35.1058 5.247 35.0658C5.813 34.9568 6.304 35.0638 6.641 35.5938C6.955 36.0898 7.179 36.5888 6.927 37.1888C6.787 37.5288 6.531 37.7478 6.226 37.9018C5.702 38.1708 5.165 38.4228 4.624 38.6588C4.355 38.7768 4.066 38.8498 3.786 38.9338C3.188 39.1108 2.62 38.7268 2.364 38.3088C2.17 37.9918 2.039 37.6578 2.067 37.2758Z" fill="#E9ECF0"/>
<path fill-rule="evenodd" clip-rule="evenodd" d="M2.0737 31.22C2.2197 31.542 2.2197 31.559 2.1657 31.929C2.0457 31.96 1.9167 31.994 1.7877 32.033C1.4447 32.137 1.3187 32.305 1.3127 32.65C1.3047 33.032 1.4697 33.332 1.7427 33.435C2.0457 33.551 2.3617 33.469 2.5637 33.197C2.7187 32.987 2.8467 32.757 2.9817 32.532C3.1647 32.232 3.3407 31.927 3.5227 31.627C3.8117 31.158 4.2657 31.032 4.7657 31.096C5.2757 31.161 5.6067 31.506 5.7387 31.986C5.8227 32.285 5.8367 32.616 5.8147 32.93C5.7777 33.408 5.3937 33.781 4.9147 33.876C4.8077 33.898 4.6957 33.909 4.5527 33.929C4.5187 33.702 4.4877 33.494 4.4517 33.262C4.5897 33.228 4.6867 33.211 4.7827 33.183C5.1187 33.094 5.2727 32.908 5.2847 32.586C5.2987 32.179 5.1407 31.913 4.8187 31.801C4.5997 31.725 4.2587 31.826 4.0907 32.05C3.9187 32.277 3.7667 32.518 3.6217 32.76C3.4357 33.062 3.2767 33.377 3.0887 33.674C2.7627 34.19 2.2467 34.223 1.7257 34.137C1.2547 34.058 0.962703 33.719 0.855703 33.273C0.777703 32.936 0.758703 32.574 0.782703 32.23C0.822703 31.705 1.2007 31.447 1.6607 31.296C1.7957 31.251 1.9407 31.242 2.0737 31.22Z" fill="#E9ECF0"/>
<path fill-rule="evenodd" clip-rule="evenodd" d="M8.3061 40.7717C7.9671 40.7637 7.7341 40.9647 7.4951 41.1307C7.3221 41.2487 7.1671 41.4137 7.0491 41.5877C6.9121 41.8007 6.9771 42.0277 7.1341 42.2187C7.2681 42.3867 7.4531 42.4397 7.6531 42.3847C8.1071 42.2547 8.4601 41.9667 8.7491 41.6097C8.8781 41.4537 8.8871 41.2397 8.7851 41.0607C8.6851 40.8757 8.5311 40.7377 8.3061 40.7717ZM7.1791 42.8467C7.1121 42.8077 7.0671 42.7737 7.0191 42.7567C6.4081 42.5387 6.0881 41.5877 6.6791 40.9957C7.0131 40.6627 7.3951 40.4047 7.8271 40.2137C8.3681 39.9727 8.8001 40.1267 9.1901 40.6457C9.5741 41.1527 9.5901 41.6917 9.1001 42.1827C8.3871 42.8947 7.5821 43.4887 6.6651 43.9047C5.8691 44.2607 5.0761 43.7897 4.9471 42.9227C4.8851 42.5077 5.0531 42.1937 5.4321 41.9327C5.5491 42.0987 5.6641 42.2577 5.7801 42.4207C5.7201 42.5107 5.6781 42.5747 5.6361 42.6427C5.5161 42.8327 5.5221 43.0347 5.6511 43.2117C5.7831 43.3937 5.9731 43.4727 6.1891 43.4017C6.5421 43.2847 6.8811 43.1327 7.1791 42.8467Z" fill="#E9ECF0"/>
<path fill-rule="evenodd" clip-rule="evenodd" d="M29.9067 52.3211C29.8947 52.3211 29.8847 52.3181 29.8757 52.3181C29.8757 52.1251 29.8867 51.9311 29.8727 51.7381C29.8447 51.3901 29.6597 51.1851 29.3567 51.1601C28.9147 51.1261 28.7227 51.2241 28.6337 51.6001C28.6257 51.6341 28.6077 51.6651 28.5997 51.6961C28.4307 52.5341 28.3667 53.3811 28.3857 54.2371C28.3897 54.3351 28.4177 54.4391 28.4487 54.5341C28.5267 54.7831 28.7157 54.9151 28.9807 54.9261C29.3447 54.9411 29.4917 54.8621 29.6007 54.5731C29.6547 54.4331 29.7107 54.2931 29.7267 54.1471C29.7947 53.5411 29.8467 52.9301 29.9067 52.3211ZM27.7247 53.7351C27.7867 53.1041 27.8347 52.4701 27.9127 51.8391C27.9427 51.6061 28.0057 51.3591 28.1227 51.1571C28.3727 50.7251 28.7937 50.5351 29.2757 50.5711C29.8027 50.6111 30.2657 50.8181 30.4427 51.3651C30.5267 51.6311 30.5527 51.9251 30.5437 52.2061C30.5237 52.7501 30.4697 53.2941 30.4197 53.8361C30.3997 54.0631 30.3697 54.2871 30.3167 54.5091C30.1257 55.3251 29.3657 55.6951 28.5667 55.4201C28.0397 55.2401 27.7687 54.8541 27.7587 54.2841C27.7557 54.1021 27.7587 53.9201 27.7587 53.7401L27.7247 53.7351Z" fill="#E9ECF0"/>
<path fill-rule="evenodd" clip-rule="evenodd" d="M20.9868 53.2395L20.9448 53.2565C21.0038 53.4105 21.0258 53.5935 21.1268 53.7105C21.4098 54.0445 21.9208 54.0275 22.1558 53.6075C22.2988 53.3515 22.4138 53.0735 22.5038 52.7935C22.6888 52.1965 22.8568 51.5955 23.0198 50.9905C23.0918 50.7205 22.9828 50.4965 22.7538 50.3425C22.5168 50.1795 22.2348 50.1765 22.0238 50.3535C21.9238 50.4355 21.8438 50.5585 21.7888 50.6785C21.4378 51.4105 21.2108 52.1855 21.0108 52.9675C20.9898 53.0545 20.9948 53.1495 20.9868 53.2395ZM23.6808 50.9235C23.6558 51.0805 23.6388 51.2375 23.6028 51.3915C23.4038 52.2105 23.1488 53.0125 22.7988 53.7815C22.5258 54.3755 22.0578 54.5745 21.5338 54.4955C20.8798 54.3955 20.4958 54.1095 20.3438 53.4475C20.3128 53.3185 20.3188 53.1725 20.3438 53.0405C20.5208 52.1825 20.7988 51.3495 21.1408 50.5445C21.2298 50.3285 21.3618 50.1075 21.5338 49.9555C22.0888 49.4645 23.0788 49.6215 23.4968 50.2395C23.6358 50.4465 23.6868 50.6735 23.6808 50.9235Z" fill="#E9ECF0"/>
<path fill-rule="evenodd" clip-rule="evenodd" d="M8.6333 46.1126C8.8553 46.1466 9.0293 46.0006 9.1893 45.8606C9.5593 45.5266 9.9293 45.1876 10.2683 44.8256C10.5243 44.5536 10.7423 44.2446 10.9613 43.9396C11.2103 43.5916 10.9243 43.1546 10.6383 43.0446C10.3303 42.9266 10.1003 43.0616 9.8953 43.2436C9.5443 43.5516 9.2023 43.8686 8.8803 44.2026C8.6193 44.4716 8.3893 44.7696 8.1543 45.0606C7.9873 45.2596 7.9463 45.5066 8.0553 45.7346C8.1593 45.9466 8.3333 46.1266 8.6333 46.1126ZM8.6473 46.7326C8.2013 46.7436 7.8543 46.4606 7.5903 46.0676C7.3123 45.6526 7.2983 45.2006 7.5873 44.7856C7.8313 44.4356 8.1093 44.0986 8.4053 43.7876C8.7743 43.4036 9.1663 43.0356 9.5673 42.6856C10.0383 42.2766 10.7253 42.3126 11.1803 42.7416C11.2303 42.7866 11.2783 42.8376 11.3223 42.8876C11.7693 43.3616 11.8163 43.9106 11.4243 44.4296C11.1713 44.7636 10.8913 45.0776 10.6053 45.3856C10.3103 45.7006 10.0043 46.0086 9.6883 46.3006C9.4153 46.5496 9.1023 46.7296 8.6473 46.7326Z" fill="#E9ECF0"/>
<path fill-rule="evenodd" clip-rule="evenodd" d="M26.3325 51.6731C26.3105 51.5611 26.2845 51.3931 26.2455 51.2301C26.1815 50.9641 25.9595 50.8881 25.7325 50.8491C25.5025 50.8071 25.3015 50.8911 25.1665 51.0821C25.1015 51.1711 25.0595 51.2831 25.0395 51.3931C24.9415 51.9281 24.8205 52.4611 24.7705 53.0001C24.7335 53.3901 24.6335 53.7851 24.7455 54.1831C24.8185 54.4391 24.9705 54.6041 25.2255 54.6431C25.5665 54.6941 25.8245 54.5451 25.9395 54.2111C26.2145 53.4091 26.2345 52.5651 26.3325 51.6731ZM26.9915 51.8391C26.8765 52.6241 26.7955 53.4181 26.6355 54.1921C26.3925 55.3721 25.1745 55.4031 24.5495 54.9411C24.2435 54.7131 24.0525 54.3911 24.0755 54.0011C24.1145 53.3561 24.1735 52.7141 24.2465 52.0711C24.2765 51.7801 24.3305 51.4861 24.4205 51.2051C24.5525 50.7901 24.7905 50.4591 25.2475 50.3301C25.9905 50.1191 26.9995 50.5821 26.9465 51.5581C26.9435 51.6511 26.9465 51.7401 26.9465 51.8331C26.9605 51.8331 26.9745 51.8361 26.9915 51.8391Z" fill="#E9ECF0"/>
<path fill-rule="evenodd" clip-rule="evenodd" d="M11.0268 48.575C11.2818 48.589 11.4638 48.432 11.6348 48.261C12.1848 47.714 12.6728 47.117 13.0988 46.466C13.1828 46.337 13.2398 46.183 13.2728 46.031C13.3378 45.757 13.1748 45.572 12.9698 45.431C12.7738 45.299 12.5548 45.31 12.3558 45.429C12.2408 45.495 12.1288 45.583 12.0398 45.683C11.6548 46.118 11.2708 46.55 10.9088 47.002C10.7318 47.221 10.5758 47.467 10.4608 47.722C10.2638 48.157 10.5498 48.575 11.0268 48.575ZM13.9458 46.042C13.9488 46.46 13.7188 46.766 13.5008 47.044C13.0228 47.647 12.5128 48.227 11.9888 48.794C11.6128 49.203 11.0568 49.302 10.6198 49.088C10.0368 48.805 9.7148 48.306 9.7978 47.734C9.8318 47.509 9.9328 47.271 10.0648 47.083C10.5518 46.385 11.0828 45.72 11.6968 45.125C12.4318 44.413 13.3238 44.772 13.7528 45.442C13.8618 45.614 13.8808 45.841 13.9458 46.042Z" fill="#E9ECF0"/>
<path fill-rule="evenodd" clip-rule="evenodd" d="M17.9516 52.6087C18.5266 52.8107 19.0456 52.9927 19.5866 53.1807C19.5276 53.3747 19.4826 53.5207 19.4406 53.6547C19.1606 53.6777 17.4696 53.1447 17.0146 52.9007C17.0676 52.5697 17.1946 52.3027 17.4976 52.0957C18.0776 51.6977 18.6156 51.2427 19.1936 50.8387C19.4686 50.6457 19.7106 50.4387 19.8786 50.1437C20.0136 49.9107 20.0206 49.6357 19.8866 49.4737C19.7106 49.2607 19.4686 49.1987 19.2106 49.2627C19.1126 49.2857 19.0226 49.3787 18.9526 49.4597C18.8796 49.5437 18.8376 49.6527 18.7626 49.7877C18.5596 49.7177 18.3636 49.6527 18.1736 49.5887C18.2066 49.0497 18.7456 48.5037 19.4156 48.6607C19.7186 48.7337 20.0206 48.8617 20.2876 49.0247C20.6276 49.2267 20.7366 49.6617 20.6156 50.0877C20.4676 50.6037 20.1106 50.9737 19.7046 51.2877C19.2196 51.6637 18.7146 52.0147 18.2216 52.3797C18.1416 52.4347 18.0716 52.5027 17.9516 52.6087Z" fill="#E9ECF0"/>
<path fill-rule="evenodd" clip-rule="evenodd" d="M16.1733 47.0261C15.2953 48.3331 14.4323 49.6231 13.5423 50.9491C13.3713 50.8231 13.2233 50.7141 13.0493 50.5881C13.1273 50.4561 13.1843 50.3491 13.2513 50.2481C13.8233 49.3871 14.3983 48.5291 14.9703 47.6651C15.0433 47.5591 15.0963 47.4381 15.1663 47.3091C14.9143 47.2951 14.7033 47.2811 14.4323 47.2671C14.5553 47.0621 14.6513 46.9021 14.7543 46.7261C15.0733 46.7261 15.3793 46.7231 15.6833 46.7261C15.8823 46.7291 16.0163 46.8461 16.1733 47.0261Z" fill="#E9ECF0"/>
<path fill-rule="evenodd" clip-rule="evenodd" d="M5.1225 28.8381C5.1345 29.0511 5.1425 29.2391 5.1535 29.4751C3.5355 29.6431 1.9395 29.7641 0.347499 29.8961C0.184499 29.7021 0.231499 29.4971 0.242499 29.2641C0.347499 29.2341 0.450499 29.1831 0.557499 29.1751C1.1425 29.1221 1.7315 29.0791 2.3185 29.0291C3.0415 28.9671 3.7625 28.8971 4.4855 28.8411C4.6855 28.8241 4.8875 28.8381 5.1225 28.8381Z" fill="#E9ECF0"/>
<path fill-rule="evenodd" clip-rule="evenodd" d="M15.852 52.4006C15.647 52.3946 15.473 52.2296 15.476 52.0416C15.476 51.8346 15.661 51.6436 15.857 51.6516C16.076 51.6576 16.224 51.8226 16.219 52.0526C16.213 52.2766 16.074 52.4056 15.852 52.4006Z" fill="#E9ECF0"/>
<path fill-rule="evenodd" clip-rule="evenodd" d="M17.2446 49.7717C17.2386 49.9937 17.0906 50.1397 16.8836 50.1337C16.6886 50.1257 16.5016 49.9427 16.5016 49.7667C16.5046 49.5727 16.6836 49.3877 16.8686 49.3847C17.0936 49.3847 17.2506 49.5447 17.2446 49.7717Z" fill="#E9ECF0"/>
<path fill-rule="evenodd" clip-rule="evenodd" d="M45.4477 12.4392C45.1107 12.4372 44.8587 12.1392 44.9147 11.8142C44.9347 11.7052 44.9787 11.5892 45.0447 11.5052C45.2967 11.1772 45.5857 10.8882 45.9467 10.6892C46.1397 10.5802 46.3497 10.5212 46.5637 10.6472C46.7907 10.7792 46.9207 11.0602 46.8107 11.2902C46.5587 11.8392 46.1267 12.2092 45.5617 12.4252C45.5207 12.4392 45.4727 12.4372 45.4477 12.4392Z" fill="#E9ECF0"/>
<path fill-rule="evenodd" clip-rule="evenodd" d="M28.1352 3.4617V2.5867C28.4092 2.5697 28.6622 2.5027 28.8532 2.7247C28.9672 2.8567 28.9672 3.1697 28.8662 3.3047C28.6732 3.5597 28.4092 3.4897 28.1352 3.4617Z" fill="#E9ECF0"/>
<path fill-rule="evenodd" clip-rule="evenodd" d="M40.7964 8.0779C40.5664 7.9269 40.3804 7.8029 40.1564 7.6549C40.5134 7.2649 40.9104 6.9589 41.2734 6.6199C41.2954 6.6309 41.3174 6.6449 41.3374 6.6559C41.1634 7.1129 40.9894 7.5699 40.7964 8.0779Z" fill="#E9ECF0"/>
</svg>
