<svg width="9" height="17" viewBox="0 0 9 17" fill="none" xmlns="http://www.w3.org/2000/svg">
<path d="M0.810933 15.7131C0.923979 15.8312 1.05847 15.925 1.20666 15.989C1.35484 16.053 1.51378 16.0859 1.67431 16.0859C1.83484 16.0859 1.99379 16.053 2.14197 15.989C2.29015 15.925 2.42465 15.8312 2.53769 15.7131L8.61784 9.41058C8.73182 9.2934 8.82228 9.15399 8.88402 9.00038C8.94575 8.84678 8.97754 8.68203 8.97754 8.51563C8.97754 8.34922 8.94575 8.18447 8.88402 8.03087C8.82228 7.87726 8.73182 7.73785 8.61784 7.62067L2.5377 1.31817C2.42465 1.20002 2.29016 1.10625 2.14197 1.04225C1.99379 0.978259 1.83485 0.945313 1.67432 0.945313C1.51378 0.945313 1.35484 0.978259 1.20666 1.04225C1.05847 1.10625 0.92398 1.20002 0.810934 1.31817C0.696958 1.43535 0.606492 1.57476 0.544756 1.72836C0.48302 1.88197 0.451235 2.04672 0.451235 2.21312C0.451235 2.37952 0.48302 2.54428 0.544756 2.69788C0.606492 2.85148 0.696958 2.9909 0.810934 3.10808L6.03986 8.51563L0.810933 13.9232C0.696957 14.0404 0.606491 14.1798 0.544755 14.3334C0.483019 14.487 0.451234 14.6517 0.451234 14.8181C0.451234 14.9845 0.483019 15.1493 0.544755 15.3029C0.606491 15.4565 0.696957 15.5959 0.810933 15.7131Z" fill="white"/>
</svg>
