<svg width="9" height="16" viewBox="0 0 9 16" fill="none" xmlns="http://www.w3.org/2000/svg">
<path d="M8.18908 0.372855C8.07603 0.254711 7.94154 0.160937 7.79335 0.0969429C7.64517 0.0329489 7.48623 1.30352e-06 7.3257 1.27548e-06C7.16517 1.24745e-06 7.00623 0.0329488 6.85804 0.0969427C6.70986 0.160937 6.57536 0.25471 6.46232 0.372855L0.38216 6.67536C0.268183 6.79254 0.177717 6.93195 0.115981 7.08555C0.0542446 7.23916 0.0224596 7.40391 0.0224596 7.57031C0.0224596 7.73671 0.0542445 7.90147 0.115981 8.05507C0.177717 8.20867 0.268183 8.34809 0.382159 8.46527L6.46231 14.7678C6.57536 14.8859 6.70985 14.9797 6.85804 15.0437C7.00622 15.1077 7.16516 15.1406 7.32569 15.1406C7.48623 15.1406 7.64517 15.1077 7.79335 15.0437C7.94154 14.9797 8.07603 14.8859 8.18908 14.7678C8.30305 14.6506 8.39352 14.5112 8.45526 14.3576C8.51699 14.204 8.54878 14.0392 8.54878 13.8728C8.54878 13.7064 8.51699 13.5417 8.45526 13.3881C8.39352 13.2345 8.30305 13.095 8.18908 12.9779L2.96015 7.57031L8.18908 2.16277C8.30306 2.04559 8.39352 1.90617 8.45526 1.75257C8.51699 1.59897 8.54878 1.43421 8.54878 1.26781C8.54878 1.10141 8.51699 0.936655 8.45526 0.783051C8.39352 0.629448 8.30306 0.490035 8.18908 0.372855Z" fill="white"/>
</svg>
